/* XPM */
static char * floor_xpm[] = {
"64 64 4 1",
" 	c #BFBA5B",
".	c #9BB94E",
"+	c #79A863",
"@	c #679175",
"                      .................  ..... ............     ",
"...         .................................. ............     ",
"...............++++++...........................................",
".............+++++++++.++++......   ............................",
"...........+++++++++++++++++...      ..........+++..............",
"..........++++++++++++++++++             +++..+++++.............",
"........++++++.....++++++++++++         +++++++..+++......+++...",
".++...+++++++.......+++...+++++++   +++++..+++....+++....+++++..",
"++++................++..................................++++++++",
"+++++++..................................++.....++++....++++++++",
"+++.......................@@@@@@...@@@.+++++.++++++++..++++...++",
"...........@@@@@..@@@...    @@@@@.@@@@@+++++++++++++++++++......",
"..........@@@@@@@@@@@@.       @@@@@@  @@++++++++++++++++++......",
"........@@@    @@@  @@         @@@@    @@  +++..++...++++.......",
".....@@@@                       @@          ++........++++++++++",
"+++ @@                    +++    @  ..        ........++++++++++",
"             +++         +++++     ....         ......+++++     ",
"   ......  +++++++  +++++++++++++...........   ......++         ",
"...............+++++++++++++++++++++............................",
"...................++++++++++++++++++++...++++++................",
"..    .................+++++++++++++++++++++++++................",
".      ............+++++++...+++++++++++++++   +................",
"          ....+++++++++++.....+++++++......     .............   ",
"   ...     ...................++++.....  ..      .............. ",
". .....     .........................            ...............",
"....................................        +++      ...........",
"...................................+++++++++++++          +++...",
"++................................+++++..+++++++++++++++++++++++",
"+++++++++++....................++++++.....++++++++++++++++++++++",
"+++++++......................................+++++++++++++++++++",
"+.............................................+++....+++++++++++",
".....................@@@@@....@@@@@......   ..++......+...++....",
"...................@@@@@@@@..@@@@@@@....     .++................",
"   ...............@@@   @@@@@@@    @@..        ++.............  ",
"   .....@@@@@..@@@@@      @@@@       @.         .........       ",
"  .....@@@@@@@@@@@@@        @                   ......          ",
"...@@.@@@  @@@@@  @@@                             ....          ",
"..@@@@@@    @@@     @                             ..............",
"..@@  @@                         ....     ++         ...........",
"@@@                     ++++    ......   ++++         ........  ",
"        ...     ....   ++++++.. .......++++++      .........    ",
"       .....   ...+++++++++++.......+++++++++.............      ",
"     .......   ..+++++++++++.......+++++++++++...........   ... ",
"   ........... ..+++++++++++++++..++++++..+++++........    .....",
"...............++++++++++++++++++++++++.....+++++...............",
".........++++++++++...+++++++++++++++++.........................",
"............++++++.....++...+++++++..++..................+++....",
"...............+++.....+......++++....++................+++++...",
".........  ......................................+++...++++++...",
"........    ....    ............................+++++++++++++...",
"......                ........++++.............+++++++++++++++++",
"+++++              ++++..+++++++++++..++++....++++++++++++++++++",
"+++.....          ++++++++++++++++++++++++++++++++++++++++++++++",
".........      .+++...+++++++++++++++++++++@@@@+++++++++++++++++",
".....         ............++++++++++++++++@@@@@@........@@@@+++.",
"...           .......+++++++++++++++++@@@+@@@@@@@@@@@..@@@@@@@+.",
"..           ..........++++++++++++++@@@@@@@@@@@@@@@@@@@   @@@@.",
"   .....     ............+++++++++++@@@@@    @@@@    @@     @@@@",
" ........     .  ............+++++++@@@       @@                ",
" ..........       ...........+++++@@@@        @                 ",
" .   .......   ... ...........      @                           ",
"      .......................  ..                               ",
"      ...  .................. ....        ...     ..    ..      ",
"      ..     .........................   .....  ...... ....     "};
