/* XPM */
static char * wall_off_xpm[] = {
"64 64 626 2",
"  	c #BFBA5B",
". 	c #9BB94E",
"+ 	c #97B44C",
"@ 	c #262F30",
"# 	c #79A863",
"$ 	c #273030",
"% 	c #667B3D",
"& 	c #222B2F",
"* 	c #61753B",
"= 	c #1C232E",
"- 	c #B4B057",
"; 	c #2A2D30",
"> 	c #161C2E",
", 	c #9C984E",
"' 	c #313932",
") 	c #424C36",
"! 	c #9D994E",
"~ 	c #5A7E4F",
"{ 	c #81934A",
"] 	c #B0C95D",
"^ 	c #3C553E",
"/ 	c #343F32",
"( 	c #80934A",
"_ 	c #BAD462",
": 	c #525E3A",
"< 	c #8FAB4A",
"[ 	c #0D122D",
"} 	c #BDD763",
"| 	c #5C6A3D",
"1 	c #5A6C3A",
"2 	c #679175",
"3 	c #61886E",
"4 	c #748545",
"5 	c #BED863",
"6 	c #94A952",
"7 	c #2B3530",
"8 	c #9AB84E",
"9 	c #363832",
"0 	c #A3BA58",
"a 	c #BCD663",
"b 	c #00092D",
"c 	c #98B64D",
"d 	c #B6B157",
"e 	c #434E36",
"f 	c #BCD763",
"g 	c #3B8146",
"h 	c #222F36",
"i 	c #888547",
"j 	c #414B35",
"k 	c #4AA251",
"l 	c #18222F",
"m 	c #61886F",
"n 	c #838046",
"o 	c #4C5738",
"p 	c #8EC65E",
"q 	c #171F2E",
"r 	c #AAA653",
"s 	c #02022C",
"t 	c #B7D060",
"u 	c #A2CD60",
"v 	c #2F5D3A",
"w 	c #817E45",
"x 	c #507048",
"y 	c #245438",
"z 	c #B7D361",
"A 	c #BFD863",
"B 	c #51A352",
"C 	c #171C2E",
"D 	c #79A763",
"E 	c #314137",
"F 	c #7FBC5A",
"G 	c #5CA653",
"H 	c #17212F",
"I 	c #6C823F",
"J 	c #76A461",
"K 	c #2D5939",
"L 	c #82C15C",
"M 	c #ABCF61",
"N 	c #A9CF60",
"O 	c #ADD161",
"P 	c #244635",
"Q 	c #374D3B",
"R 	c #354A3A",
"S 	c #45914B",
"T 	c #AFD161",
"U 	c #80C05C",
"V 	c #78BD5B",
"W 	c #ACD061",
"X 	c #4D9C4F",
"Y 	c #14122D",
"Z 	c #77A562",
"` 	c #213732",
" .	c #63B859",
"..	c #BED763",
"+.	c #86C25D",
"@.	c #B3D362",
"#.	c #5BB659",
"$.	c #9BC95F",
"%.	c #6AB659",
"&.	c #152432",
"*.	c #344839",
"=.	c #628954",
"-.	c #1A2A30",
";.	c #A0CC60",
">.	c #A8CE60",
",.	c #96C75E",
"'.	c #59B659",
").	c #81C05C",
"!.	c #93C65E",
"~.	c #2A6947",
"{.	c #304338",
"].	c #202A31",
"^.	c #529A4E",
"/.	c #B8D562",
"(.	c #5CB659",
"_.	c #A6CD60",
":.	c #6DBA5A",
"<.	c #72BC5B",
"[.	c #58B659",
"}.	c #8EC55D",
"|.	c #BAD663",
"1.	c #3D9A5E",
"2.	c #171C2D",
"3.	c #93B04B",
"4.	c #92AE4B",
"5.	c #1A2D30",
"6.	c #71B357",
"7.	c #9CCA5F",
"8.	c #68B95A",
"9.	c #B5D462",
"0.	c #5AB659",
"a.	c #77BD5B",
"b.	c #44A662",
"c.	c #287B5A",
"d.	c #1E262F",
"e.	c #556638",
"f.	c #2B5B3A",
"g.	c #B4D362",
"h.	c #57B559",
"i.	c #61B859",
"j.	c #6FBB5A",
"k.	c #55B559",
"l.	c #51AE5E",
"m.	c #5BB758",
"n.	c #2A8A64",
"o.	c #192430",
"p.	c #ACA754",
"q.	c #15112D",
"r.	c #54AA54",
"s.	c #6FBB5B",
"t.	c #88C35D",
"u.	c #B2D262",
"v.	c #5FB759",
"w.	c #46A563",
"x.	c #59B559",
"y.	c #4AA961",
"z.	c #2A845F",
"A.	c #22222E",
"B.	c #819A45",
"C.	c #234334",
"D.	c #5AB559",
"E.	c #B9D562",
"F.	c #47A662",
"G.	c #3D9F66",
"H.	c #51AF5E",
"I.	c #2E9167",
"J.	c #182C33",
"K.	c #6D975B",
"L.	c #293330",
"M.	c #428647",
"N.	c #7CBF5C",
"O.	c #66B95A",
"P.	c #6CBA5A",
"Q.	c #53B05D",
"R.	c #359A68",
"S.	c #58B55B",
"T.	c #29805D",
"U.	c #4B5935",
"V.	c #8BA648",
"W.	c #58B358",
"X.	c #4FAC5F",
"Y.	c #58B45A",
"Z.	c #76BD5B",
"`.	c #5BB759",
" +	c #32986A",
".+	c #2C6444",
"++	c #59B55A",
"@+	c #57B35B",
"#+	c #2F966A",
"$+	c #17222F",
"%+	c #92AF4B",
"&+	c #65793C",
"*+	c #1E5042",
"=+	c #339869",
"-+	c #9DCA5F",
";+	c #55B15C",
">+	c #309468",
",+	c #3F7D43",
"'+	c #3C9F67",
")+	c #3E9F66",
"!+	c #1D232F",
"~+	c #96B34C",
"{+	c #7A9243",
"]+	c #193436",
"^+	c #48A45F",
"/+	c #42A265",
"(+	c #40A165",
"_+	c #91C65E",
":+	c #5EB759",
"<+	c #369967",
"[+	c #1C4B41",
"}+	c #267657",
"|+	c #44A464",
"1+	c #52AF5D",
"2+	c #2E966B",
"3+	c #267255",
"4+	c #364131",
"5+	c #94B14C",
"6+	c #182530",
"7+	c #2D8F66",
"8+	c #3A9D67",
"9+	c #319568",
"0+	c #60B759",
"a+	c #56B35B",
"b+	c #2D9369",
"c+	c #183034",
"d+	c #2D8D64",
"e+	c #349768",
"f+	c #2F956A",
"g+	c #6F7343",
"h+	c #B0AB55",
"i+	c #6C813F",
"j+	c #26282D",
"k+	c #287A59",
"l+	c #329869",
"m+	c #56B25C",
"n+	c #54B15C",
"o+	c #48A762",
"p+	c #287D5B",
"q+	c #48904A",
"r+	c #369A68",
"s+	c #2A8362",
"t+	c #161B2F",
"u+	c #246B50",
"v+	c #2F986B",
"w+	c #2F976B",
"x+	c #287E5B",
"y+	c #ADA954",
"z+	c #98B54D",
"A+	c #313C31",
"B+	c #343E31",
"C+	c #182D33",
"D+	c #2A825E",
"E+	c #2F976A",
"F+	c #379B68",
"G+	c #2C8B64",
"H+	c #1C3332",
"I+	c #56AE56",
"J+	c #4BA961",
"K+	c #4EAC5F",
"L+	c #2E946B",
"M+	c #182E34",
"N+	c #16182D",
"O+	c #1F5545",
"P+	c #2F9569",
"Q+	c #277959",
"R+	c #246B51",
"S+	c #2C8C64",
"T+	c #2E9368",
"U+	c #379A68",
"V+	c #3B9862",
"W+	c #172831",
"X+	c #286C66",
"Y+	c #3B8969",
"Z+	c #2E966A",
"`+	c #349969",
" @	c #266E69",
".@	c #19313B",
"+@	c #161B2E",
"@@	c #1C2830",
"#@	c #4B4B36",
"$@	c #BEB95B",
"%@	c #648D72",
"&@	c #16172D",
"*@	c #1B423B",
"=@	c #277757",
"-@	c #4CAB61",
";@	c #2F9368",
">@	c #193A38",
",@	c #172937",
"'@	c #418F63",
")@	c #5AB759",
"!@	c #56AF5C",
"~@	c #469965",
"{@	c #277C6E",
"]@	c #4DAA60",
"^@	c #2E956A",
"/@	c #2D956A",
"(@	c #49A762",
"_@	c #50AD5F",
":@	c #27736F",
"<@	c #277270",
"[@	c #15132A",
"}@	c #5D5C3A",
"|@	c #5D5B3A",
"1@	c #96924C",
"2@	c #669074",
"3@	c #293A3B",
"4@	c #16202F",
"5@	c #1D4E41",
"6@	c #1C4D41",
"7@	c #1C493F",
"8@	c #161A2E",
"9@	c #16192D",
"0@	c #246767",
"a@	c #55AF5C",
"b@	c #327E6C",
"c@	c #4AA761",
"d@	c #4CAA60",
"e@	c #31976A",
"f@	c #3C9E66",
"g@	c #389B68",
"h@	c #2D8D6B",
"i@	c #27716F",
"j@	c #1E4F52",
"k@	c #4D4C36",
"l@	c #BDB85A",
"m@	c #3A3B33",
"n@	c #2D2F30",
"o@	c #20242F",
"p@	c #21595B",
"q@	c #3F8F68",
"r@	c #3E8D68",
"s@	c #297B6E",
"t@	c #4BAA61",
"u@	c #4EAB60",
"v@	c #30966A",
"w@	c #297C6E",
"x@	c #205859",
"y@	c #2B2D30",
"z@	c #807E45",
"A@	c #1E4D50",
"B@	c #246F71",
"C@	c #47A563",
"D@	c #256E6F",
"E@	c #28776E",
"F@	c #46A663",
"G@	c #319769",
"H@	c #2C8A6C",
"I@	c #246666",
"J@	c #1C2330",
"K@	c #1C212E",
"L@	c #18303A",
"M@	c #27706E",
"N@	c #429366",
"O@	c #297D6E",
"P@	c #2B866C",
"Q@	c #2E936B",
"R@	c #2A7D6E",
"S@	c #55B25C",
"T@	c #172634",
"U@	c #638A54",
"V@	c #859F46",
"W@	c #161A2D",
"X@	c #1D474C",
"Y@	c #2B856C",
"Z@	c #3B9D67",
"`@	c #2C876C",
" #	c #256A69",
".#	c #172433",
"+#	c #95B24C",
"@#	c #1A222F",
"##	c #1A3B42",
"$#	c #2B846D",
"%#	c #1A3840",
"&#	c #5E8351",
"*#	c #6B955A",
"=#	c #266E6D",
"-#	c #28766E",
";#	c #2E946A",
">#	c #30976A",
",#	c #28746F",
"'#	c #1B3D44",
")#	c #171D2E",
"!#	c #74A260",
"~#	c #18202F",
"{#	c #1A3A42",
"]#	c #277170",
"^#	c #2A816D",
"/#	c #359969",
"(#	c #28786E",
"_#	c #2E936A",
":#	c #2E926B",
"<#	c #27736E",
"[#	c #15152B",
"}#	c #1F2A31",
"|#	c #668E56",
"1#	c #266D6B",
"2#	c #4DAB60",
"3#	c #29796E",
"4#	c #1C4248",
"5#	c #304337",
"6#	c #394F3C",
"7#	c #172130",
"8#	c #28756F",
"9#	c #52AF5E",
"0#	c #50AD5E",
"a#	c #4EAB5F",
"b#	c #36836B",
"c#	c #27706F",
"d#	c #2F946A",
"e#	c #49A862",
"f#	c #27716E",
"g#	c #1A3740",
"h#	c #192532",
"i#	c #739F5F",
"j#	c #4C6A46",
"k#	c #21585A",
"l#	c #42A264",
"m#	c #317D6C",
"n#	c #359968",
"o#	c #2D8C6C",
"p#	c #1B4047",
"q#	c #266D6C",
"r#	c #215B5C",
"s#	c #15162B",
"t#	c #5F7238",
"u#	c #64773A",
"v#	c #7F9744",
"w#	c #6B803E",
"x#	c #162131",
"y#	c #266C6B",
"z#	c #297A6E",
"A#	c #2D8E6B",
"B#	c #3D9E66",
"C#	c #4AA861",
"D#	c #409067",
"E#	c #359869",
"F#	c #287C60",
"G#	c #236363",
"H#	c #236262",
"I#	c #4F5E34",
"J#	c #A6A151",
"K#	c #A6A252",
"L#	c #2E3831",
"M#	c #182936",
"N#	c #1C4449",
"O#	c #276F6D",
"P#	c #2E916B",
"Q#	c #29776E",
"R#	c #4FA660",
"S#	c #3C9E67",
"T#	c #4EA65A",
"U#	c #41A165",
"V#	c #2E796D",
"W#	c #2F7B6D",
"X#	c #1A3938",
"Y#	c #21595A",
"Z#	c #1B3E44",
"`#	c #3E573E",
" $	c #172734",
".$	c #1F5355",
"+$	c #449666",
"@$	c #47A763",
"#$	c #458B47",
"$$	c #257456",
"%$	c #47A663",
"&$	c #54AD5D",
"*$	c #2A756E",
"=$	c #43A064",
"-$	c #5CB858",
";$	c #246E52",
">$	c #150D2A",
",$	c #205759",
"'$	c #1F5254",
")$	c #5B7F4F",
"!$	c #69673D",
"~$	c #172131",
"{$	c #193841",
"]$	c #57AF57",
"^$	c #3B7742",
"/$	c #1C4950",
"($	c #32906A",
"_$	c #389C68",
":$	c #1F5645",
"<$	c #1A212E",
"[$	c #648B55",
"}$	c #8E8B49",
"|$	c #246665",
"1$	c #19333D",
"2$	c #15192F",
"3$	c #3E7D44",
"4$	c #58B157",
"5$	c #1E3734",
"6$	c #1B3C42",
"7$	c #2B856D",
"8$	c #4FAD5F",
"9$	c #293532",
"0$	c #737140",
"a$	c #6E6C3F",
"b$	c #16172C",
"c$	c #458B49",
"d$	c #5BB75A",
"e$	c #4A964D",
"f$	c #33663C",
"g$	c #2D8F6B",
"h$	c #449566",
"i$	c #58B35A",
"j$	c #58B55A",
"k$	c #2C956B",
"l$	c #2A7F6E",
"m$	c #1D464B",
"n$	c #425D41",
"o$	c #A9A553",
"p$	c #15192E",
"q$	c #4C9B4F",
"r$	c #59B358",
"s$	c #59B458",
"t$	c #2F5E3B",
"u$	c #1D3231",
"v$	c #1D484D",
"w$	c #2D8B6C",
"x$	c #3EA066",
"y$	c #34806C",
"z$	c #3FA065",
"A$	c #42A364",
"B$	c #2A806D",
"C$	c #266F6D",
"D$	c #172533",
"E$	c #3E3E33",
"F$	c #1A363F",
"G$	c #2D906B",
"H$	c #27726F",
"I$	c #1C4147",
"J$	c #5C6E3A",
"K$	c #6E843F",
"L$	c #16192C",
"M$	c #256B6A",
"N$	c #2C8B6C",
"O$	c #246E70",
"P$	c #276F6E",
"Q$	c #19323C",
"R$	c #4B6959",
"S$	c #90AC4A",
"T$	c #161D2E",
"U$	c #1C454A",
"V$	c #48A662",
"W$	c #45A463",
"X$	c #31856C",
"Y$	c #3A9C67",
"Z$	c #162030",
"`$	c #95B14C",
" %	c #1B222E",
".%	c #1A373F",
"+%	c #2A7E6E",
"@%	c #287D6E",
"#%	c #409F65",
"$%	c #41A265",
"%%	c #2C886C",
"&%	c #2A8560",
"*%	c #236161",
"=%	c #22232E",
"-%	c #B8B358",
";%	c #3B3C33",
">%	c #161F30",
",%	c #29816D",
"'%	c #30986B",
")%	c #182F34",
"!%	c #2E9267",
"~%	c #2A7E6D",
"{%	c #236060",
"]%	c #3C473F",
"^%	c #68663D",
"/%	c #246766",
"(%	c #329769",
"_%	c #1A3D39",
":%	c #2D8E66",
"<%	c #2B836D",
"[%	c #205255",
"}%	c #181E2E",
"|%	c #B1AD56",
"1%	c #718740",
"2%	c #16182C",
"3%	c #205557",
"4%	c #53AF5D",
"5%	c #2E906B",
"6%	c #23694F",
"7%	c #14002A",
"8%	c #256F59",
"9%	c #344032",
"0%	c #181F2E",
"a%	c #1D484C",
"b%	c #35896B",
"c%	c #1E5343",
"d%	c #1B4046",
"e%	c #1B3F45",
"f%	c #182D39",
"g%	c #333431",
"h%	c #BBB659",
"i%	c #8DA849",
"j%	c #706E40",
"k%	c #246564",
"l%	c #256E70",
"m%	c #59B45A",
"n%	c #2D8E6A",
"o%	c #27726E",
"p%	c #1F5053",
"q%	c #161B2D",
"r%	c #172332",
"s%	c #1F272F",
"t%	c #7E7C44",
"u%	c #99B74D",
"v%	c #27282E",
"w%	c #19353E",
"x%	c #256969",
"y%	c #2E9268",
"z%	c #37846B",
"A%	c #2C896C",
"B%	c #2D9066",
"C%	c #205755",
"D%	c #246566",
"E%	c #2C866D",
"F%	c #1C4348",
"G%	c #425034",
"H%	c #516237",
"I%	c #506137",
"                                            . . . . . . . . + . . . . . . . .     . . . . .   . . . . . . . . . . . .           ",
". . .                   . . . . . . . . . . . . . . . . . . @ . . . . . . . . . . . . . . .   . . . . . . . . . . . .           ",
". . . . . . . . . . . . . . . # # # # # # . . . . . . . . . $ . . . . . . . . . . . . . . . . . . . . . . . . . . . . . . . . . ",
". . . . . . . . . . . . . # # # # # # # # # . # # # # . . % & . .       . . . . . . . . . . . . . . . . . . . . . . . . . . . . ",
". . . . . . . . . . . # # # # # # # # # # # # # # # # # . * = -           . . . . . . . . . . # # # . . . . . . . . . . . . . . ",
". . . . . . . . . . # # # # # # # # # # # # # # # # # #   ; > ,                   # # # . . # # # # # . . . . . . . . . . . . . ",
". . . . . . . . # # # # # # . . . . . # # # # # # # # # # ' ) !                 # # # # # # # . . # # # . . . . . . # # # . . . ",
". # # . . . # # # # # # # . . . . . . . # # # . . . # # ~ { ] ^ #       # # # # # . . # # # . . . . # # # . . . . # # # # # . . ",
"# # # # . . . . . . . . . . . . . . . . # # . . . . . . / ( _ : . . . . . . . . . . . . . . . . . . . . . . . . # # # # # # # # ",
"# # # # # # # . . . . . . . . . . . . . . . . . . . . < [ } } | 1 . . . . . . . . # # . . . . . # # # # . . . . # # # # # # # # ",
"# # # . . . . . . . . . . . . . . . . . . . . . . . 2 3 4 5 } 6 7 8 . 2 2 2 . # # # # # . # # # # # # # # . . # # # # . . . # # ",
". . . . . . . . . . . 2 2 2 2 2 . . 2 2 2 . . .       9 0 } } a b c 2 2 2 2 2 # # # # # # # # # # # # # # # # # # # . . . . . . ",
". . . . . . . . . . 2 2 2 2 2 2 2 2 2 2 2 2 .       d e 5 } } f g h 2 2     2 2 # # # # # # # # # # # # # # # # # # . . . . . . ",
". . . . . . . . 2 2 2         2 2 2     2 2         i j 5 } } f k l m         2 2     # # # . . # # . . . # # # # . . . . . . . ",
". . . . . 2 2 2 2                                   n o 5 } } } p q r                   # # . . . . . . . . # # # # # # # # # # ",
"# # #   2 2                                         s t } } } } u v w   . .                 . . . . . . . . # # # # # # # # # # ",
"                          # # #                   x y z } } } } A B C . . . .                   . . . . . . # # # # #           ",
"      . . . . . .     # # # # # # #     # # # # D E F } } } } } 5 G H I . . . . . . . .       . . . . . . # #                   ",
". . . . . . . . . . . . . . . # # # # # # # # # J K L } M } } N } O P Q . . . . . . . . . . . . . . . . . . . . . . . . . . . . ",
". . . . . . . . . . . . . . . . . . . # # # # # R S T } U 5 } V A W X Y # # # . . . # # # # # # . . . . . . . . . . . . . . . . ",
". .         . . . . . . . . . . . . . . . . . Z `  ...f +...@.#.$.} %.&.*.# # # # # # # # # # # . . . . . . . . . . . . . . . . ",
".             . . . . . . . . . . . . # # # # =.-.;...$.>...,.'.).5 !.~.{.# # # # # # #       # . . . . . . . . . . . . . . . . ",
"                    . . . . # # # # # # # # # ].^./.W (.>._.:.<.[.}.|.1.2.3.. . . . .           . . . . . . . . . . . . .       ",
"      . . .           . . . . . . . . . . . 4.5.6.A 7.8.9.0.L a.0.0._.b.c.d..     . .             . . . . . . . . . . . . . .   ",
".   . . . . .           . . . . . . . . . . e.f.g.,.h.i.j.k.f a.l.0.h.m.n.o.p.                    . . . . . . . . . . . . . . . ",
". . . . . . . . . . . . . . . . . . . . . 8 q.r.s.'.0.0.0.t.u.v.w.x.0.0.y.z.A.          # # #             . . . . . . . . . . . ",
". . . . . . . . . . . . . . . . . . . . . B.C.D.0.0.0.0.'.E.v.0.F.G.0.0.H.I.J.K.# # # # # # # #                     # # # . . . ",
"# # . . . . . . . . . . . . . . . . . . . L.M.0.0.0.0.0.0.N.O.P.Q.R.S.0.0.y.T.U.. # # # # # # # # # # # # # # # # # # # # # # # ",
"# # # # # # # # # # # . . . . . . . . . V.H W.0.0.0.X.Y.0.h.@.Z.`. +.+0.++@+#+$+%+. # # # # # # # # # # # # # # # # # # # # # # ",
"# # # # # # # . . . . . . . . . . . . . &+*+`.0.0.m.=+Y.0.P.-+'.0.;+>+,+'+0.)+T.!+~+. . . # # # # # # # # # # # # # # # # # # # ",
"# . . . . . . . . . . . . . . . . . . {+]+^+0.0.0./+(+0.0._+:+0.0.0.<+[+}+|+1+2+3+4+. . . . # # # . . . . # # # # # # # # # # # ",
". . . . . . . . . . . . . . . . . . 5+6+7+Q.0.0.8+9+++0.0.0+0.0.0.0.a+b+c+d+e+#+f+*+g+h+8 . # # . . . . . . # . . . # # . . . . ",
". . . . . . . . . . . . . . . . . i+j+k+l+m+n+o+p+q+0.0.0.0.0.0.0.0.++r+s+t+u+v+#+w+x+> y+. # # . . . . . . . . . . . . . . . . ",
"      . . . . . . . . . . . z+A+B+C+D+E+F+0.r+G+H+I+0.0.0.J+0.0.K+0.0.;+L+M+N+O+P+#+Q+> y+    # # . . . . . . . . . . . . .     ",
"      . . . . . 2 2 2 2 2 . + R+S+T+#+U+Q.V+u+W+X+`.0.D.Y+E+++'.Z+m+0.0.`+ @.@+@J.J.@@#@$@      . . . . . . . . .               ",
"    . . . . . 2 2 2 2 2 2 2 %@&@*@=@v+-@;@>@&@,@'@)@!@~@{@)+]@0.^@/@(@m._@:@<@[@}@|@1@          . . . . . .                     ",
". . . 2 2 . 2 2 2     2 2 2 2@3@+@4@5@6@7@8@9@0@a@0.b@:@c@d@e@n+^@#+#+f@g@h@i@j@k@                  . . . .                     ",
". . 2 2 2 2 2 2         2 2 2 l@l@m@n@o@> +@p@q@0.r@i@s@t@0.e@u@^@#+#+o+l.v@w@x@y@                  . . . . . . . . . . . . . . ",
". . 2 2     2 2                       z@+@A@B@@+C@D@E@#+^@m.F@^@#+#+#+^@o+G@H@I@J@h+# #                   . . . . . . . . . . . ",
"2 2 2                                 K@L@M@N@F+O@P@Q@R@#+0.S@#+#+#+#+#+#+#+#+<@T@U@# # #                   . . . . . . . .     ",
"                . . .           . . V@W@X@i@E+#+#+#+Y@R@#+^@x.Z@#+#+#+#+#+#+#+`@ #.## # #             . . . . . . . . .         ",
"              . . . . .       . . +#@###i@$##+#+#+E+E@f+#+Z+o+Z@#+#+#+#+#+#+#+`@i@%#&## # . . . . . . . . . . . . .             ",
"          . . . . . . .       . . *#W@=#-#f+#+G.F+#+;##+#+#+>#>##+#+w@#+#+#+#+f+,#'#)#!## # . . . . . . . . . . .       . . .   ",
"      . . . . . . . . . . .   . . ~#{#]#^##+F+Y./##+#+#+#+8+#+#+#+#+(#_##+#+#+#+:#<#[#}#Z # # . . . . . . . .         . . . . . ",
". . . . . . . . . . . . . . . # |#.#1#s@#+#+S@Q.#+#+#+#+#+2##+#+#+#+-#3##+#+Z+#+#+(#4#+@5## # # # . . . . . . . . . . . . . . . ",
". . . . . . . . . # # # # # D 6#7# #8#f+v@9#0.0##+#+#+#+=+a##+#+#+f@b#c#d#v@0#e##+;#f#'#g#h#< 8 . . . . . . . . . . . . . . . . ",
". . . . . . . . . . . . # i#j###k#^#E+/@F@0.;+^@#+#+#+#+l.`.l##+Z@f@x.m#3#n#0.l.v@#+o#p#q#r#s#t#u#v#. . . . . . . # # # . . . . ",
". . . . . . . . . . . . w#L.x#y#z#;#A#l.0.0./#J+#+#+B#=+0#0.S@#+C#Q.0.D#c#E#0.`.e@#+#+F#4#<@G#H#H#I#. . . . . . # # # # # . . . ",
". . . . . . . . . J#K#L#M#N#O#c#P#Q#R#0.x.S#J+T##+^@0.`+0#0.0.U#0.0.0.D.V#W#x.#.F+>#C##+X#Y#i@M@Z#`## # . . . # # # # # # . . . ",
". . . . . . . .   >  $.$H#<@i@i@]#+$`.0.Y.@$#$$$#+)+0.%$_@0.0.#.0.0.0.0.&$*$=$0.;+>#-$Z+;$>$,$'$W@)$# # # # # # # # # # # . . . ",
". . . . . .       !$~$##i@i@M@i@{$]$0.0.x.^$/$#+#+]@0.0.Y.0.0.0.0.0.0.0.`.($h@0.++_$u@d@f+:$W@<$[$# # # # # # # # # # # # # # # ",
"# # # # #         }$> > > |$1$2$3$0.0.4$5$6$7$#+v@8$0.0.0.0.0.'.|+0.0.0.0.a+^@l#0.++/@Q.>#:#9$Z # # # # # # # # # # # # # # # # ",
"# # # . . . . .     0$a$> b$+@c$d$d$e$f$p@<@g$#+e@m.0.0.2#0.0.0.f@h$i$0.0.j$F+^@y.x.k$F.l+l$m$n$# # # # # # # # # # # # # # # # ",
". . . . . . . . .       o$p$q$r$s$t$u$v$i@w$#+#+l.0.0.0.x$x.0.0.o+H@y$0.0.0.z$#+>#n+A$#+#+B$C$D$=.# # # # # # # # # # # # # # # ",
". . . . .                 E$C +@+@W@F$]#E@#+#+l+@+0.0._@Z+^@x.0.`.G$H$+$0.0.0.F+#+#+#+#+#+#+]#I$J$. . . . . . . 2 2 2 2 # # # . ",
". . .                       K$A+L$x@M$s@N$#+^@_@0.`.|+>##+#+F.0.0.F.-#O$m.0.0.S@>##+#+#+#+#+B$P$Q$R$2 2 2 . . 2 2 2 2 2 2 2 # . ",
". .                       . S$T$U$i@:@f+#+#+V$0.Y.W$N$;##+#+v@1+0.1+:#i@X$Y$0.`.`+#+T+#+#+#+f+-#q#Z$3 2 2 2 2 2       2 2 2 2 . ",
"      . . . . .           `$ %.%]#+%g$#+G@/+m.X.`+s@@%#%$%8+#+#+S@;+e@%%z#N$o+X.J+#+Q+&%#+g$#+;#,#*%=%-%  2 2           2 2 2 2 ",
"  . . . . . . . .         ;%>%M$3#f+#+Z+0#`.X.Z+^#,%8$0.0.d@#+#+e#0._@Z+_#E@Z+^@Z+#+'%)%!%~%%%#+A#]#{%]%}$                      ",
"  . . . . . . . . . .   ^%Z$/%:@f+#+#+#+=+=+e@#+d#(%0.0.0.0.e@#+>#a+'./+#+d##+#+#+#+#+D+_%:%8#,#o#<%i@=#[%}%|%                  ",
"  .       . . . . . . 1%2%3%i@A##+E+#+#+#+#+E+#+/+4%0.0.0.;+>##+#+/@C#K+^@#+#+5%#+#+#+E+6%7%8%i@i@i@<@<@I@+@h+                  ",
"            . . . . 9%0%a%i@H@#+g$w@A##+#+#+s@b%x.0.0.0.0.J+#+#+#+#+#+G.o+#+#+Q@w@:##+#+f+c%b$Z#0@<@d%e%f%g%h%                  ",
"            . . i%j%>%k%P$g$P#^#H$z##+#+f+P#l%m%0.0.0.0.0.#+e@_$#+#+#+#+>##+#+#+n%o%P##+d#p%q%> ~$r%> s%t%h%    . .             ",
"            . u%v%w%,$H$i@c#c#i@x%y%#+E+$#c#z%0.0.0.0.0.X.Z+g@m.^@#+#+#+#+A%#+#+B%C%D%E%7$<@F%> G%H%I%%+. .   . . . .           "};
