/* XPM */
static char * player_still_xpm[] = {
"64 64 12 1",
" 	c #BFBA5B",
".	c #9BB94E",
"+	c #79A863",
"@	c #679175",
"#	c #161C2E",
"$	c #FFFFFF",
"%	c #EFE1AB",
"&	c #E3C18C",
"*	c #977B6B",
"=	c #A79665",
"-	c #8D8E68",
";	c #989662",
"                      .................  ..... ............     ",
"...         .................................. ............     ",
"...............++++++...........................................",
".............+++++++++.++++......   ............................",
"...........+++++++++++++++++...      ..........+++..............",
"..........++++++++++++++++++             +++..+++++.............",
"........++++++.....++++++++++++         +++++++..+++......+++...",
".++...+++++++.......+++...+++++++   +++++..+++....+++....+++++..",
"++++................++..................................++++++++",
"+++++++..................................++.....++++....++++++++",
"+++.......................@@@@@@...@@@.+++++.++++++++..++++...++",
"...........@@@@@..@@@...    @@@@@.@@@@@+++++++++++++++++++......",
"..........@@@@@@@@@@@@.       @@@@@@  @@++++++++++++++++++......",
"........@@@    @@@  @@         @@@@    @@  +++..++...++++.......",
".....@@@@                       @@          ++........++++++++++",
"+++ @@                   #####   @####        ........++++++++++",
"             +++       #################        ......+++++     ",
"   ......  +++++++ #######$$################   ......++         ",
"...............+#########$$$$$####$$$#########..................",
"...............#########$$$$$$$%$$$$$$########++................",
"..    .........###%$$$%%$$$$$$$$$$$$$$%&$$$####+................",
".      .......###%$$$$$%$$$$$$&&$$$$$$&&$$$$###+................",
"          ....##%%$$$$$$$$$$$&&$$$$$$&&&$$$$$###.............   ",
"   ...     .####&%$$$$$$$%%%&&&$$$$$%&&%$$$$%### .............. ",
". .....     ####&&%$$$$$%&%&%$$%%$%%%%%%$$$$%%######............",
"...........####$$&&%%$$$%&&&$$$$$%%%$$$$%$$%&&&######...........",
"...........##$$$$$&&$$$$$$&&$$$$$%%%$$$$$%%%&&&######     +++...",
"++........###$$$$$$&$$$$$$&&$$$$$%%$$$$$$%%%%&#######+++++++++++",
"++++++++++###$$$$$$&$$$$$$%&%$$%%%%$$$$$%%&&&*#####+++++++++++++",
"+++++++...###$$$$$%%$$$$$%%%%%%%%%%%$$###%%########+++++++++++++",
"+.........###%$$$%%%%$$%$$$$%%$$$%%&%####%#########..+++++++++++",
"...........###%%%$$$%%%$$$$$$$$$$$$&&###%%#######$$#..+...++....",
"...........####%%$$$$%%$$$$$$$$$$$$&&##%%%#######$##............",
"   ........####&%$$$$&&$$$$$&$$$$$$&%##%$$###$$$#$$##.........  ",
"   .....@@@####&%%%%%&&$$$$&&$$$%&&%%%%$$$###$#$#####....       ",
"  .....@@@@@###&%%&&&&%%%%%%%%%%%%%%%%%$$$###########.          ",
"...@@.@@@  @##%&&%%%%%%$$$$%%%%%$$$$%%%$$$###########.          ",
"..@@@@@@   ###&&&&%%$%%$$$$$%%%$$$$$$$%%&&&##########...........",
"..@@  @@   ###&=&&&%$$$$$$$$$&%$$$$$$%%&&&-##########...........",
"@@@        ####=&&&=&&&%%%%%&&&&%%%%%&&&&&&--#######  ........  ",
"        ... ####;;;;&&&&%%%%&&&&&&%%&&&&&&&--######.........    ",
"       ..... #####--&&&&&---&&&&&&&&&--&&&&-####..........      ",
"     .......   ####---&&---&&&;;;&&&------#####..........   ... ",
"   ........... #####--##--#####-;;----#########........    .....",
"...............+##############################+++...............",
".........++++++++############################...................",
"............++++++.#######..+++++++..######..............+++....",
"...............+++..###+......++++....+###..............+++++...",
".........  ......................................+++...++++++...",
"........    ....    ............................+++++++++++++...",
"......                ........++++.............+++++++++++++++++",
"+++++              ++++..+++++++++++..++++....++++++++++++++++++",
"+++.....          ++++++++++++++++++++++++++++++++++++++++++++++",
".........      .+++...+++++++++++++++++++++@@@@+++++++++++++++++",
".....         ............++++++++++++++++@@@@@@........@@@@+++.",
"...           .......+++++++++++++++++@@@+@@@@@@@@@@@..@@@@@@@+.",
"..           ..........++++++++++++++@@@@@@@@@@@@@@@@@@@   @@@@.",
"   .....     ............+++++++++++@@@@@    @@@@    @@     @@@@",
" ........     .  ............+++++++@@@       @@                ",
" ..........       ...........+++++@@@@        @                 ",
" .   .......   ... ...........      @                           ",
"      .......................  ..                               ",
"      ...  .................. ....        ...     ..    ..      ",
"      ..     .........................   .....  ...... ....     "};
