/* XPM */
static char * coin_xpm[] = {
"64 64 6 1",
" 	c None",
".	c #161C2E",
"+	c #EFE1AB",
"@	c #FFFFFF",
"#	c #D5B583",
"$	c #977B6B",
"                                                                ",
"                                                                ",
"                                                                ",
"                                                                ",
"                                                                ",
"                                                                ",
"                                                                ",
"                                                                ",
"                                                                ",
"                                                                ",
"                                                                ",
"                                                                ",
"                                                                ",
"                                                                ",
"                                                                ",
"                                                                ",
"                                                                ",
"                                                                ",
"                                                                ",
"                                                                ",
"                             ....                               ",
"                            ......                              ",
"                           ...++... .....                       ",
"                           ..++@+.........                      ",
"                          ..++@@+#...+++...                     ",
"                          ..+@@++#..++@++..                     ",
"                          ..#@@+++.#+@@++..                     ",
"                           ..+++++##+@@++..                     ",
"                           ..+++++##+++++..                     ",
"                           ...#++#$##+++..                      ",
"                            ..####$###....                      ",
"                            ..++##$$$....                       ",
"                            ..++##$....                         ",
"                            ..+##$$..                           ",
"                           ..++##$...                           ",
"                           ..++##...                            ",
"                          ...+###..                             ",
"                          ..++##...                             ",
"                         ...+##$..                              ",
"                         ..####$..                              ",
"                         ..###$..                               ",
"                         ..$##$..                               ",
"                          ..##..                                ",
"                                                                ",
"                                                                ",
"                                                                ",
"                                                                ",
"                                                                ",
"                                                                ",
"                                                                ",
"                                                                ",
"                                                                ",
"                                                                ",
"                                                                ",
"                                                                ",
"                                                                ",
"                                                                ",
"                                                                ",
"                                                                ",
"                                                                ",
"                                                                ",
"                                                                ",
"                                                                ",
"                                                                "};
