/* XPM */
static char * coin_off_xpm[] = {
"64 64 624 2",
"  	c #BFBA5B",
". 	c #9BB94E",
"+ 	c #79A863",
"@ 	c #679175",
"# 	c #73A05F",
"$ 	c #75A360",
"% 	c #2A3B35",
"& 	c #1B242F",
"* 	c #1A232F",
"= 	c #6D975B",
"- 	c #94B14C",
"; 	c #9AB84E",
"> 	c #6B955A",
", 	c #5B7F4F",
"' 	c #161C2E",
") 	c #051B2D",
"! 	c #001B2D",
"~ 	c #001A2D",
"{ 	c #722C3A",
"] 	c #82343E",
"^ 	c #874944",
"/ 	c #864944",
"( 	c #81313E",
"_ 	c #82303D",
": 	c #4A2333",
"< 	c #091B2E",
"[ 	c #587B4D",
"} 	c #6D985B",
"| 	c #202C31",
"1 	c #151C2E",
"2 	c #00182C",
"3 	c #A43A46",
"4 	c #B73F4B",
"5 	c #B63F4A",
"6 	c #E64E58",
"7 	c #F45C5F",
"8 	c #FC876D",
"9 	c #FB866D",
"0 	c #F2565E",
"a 	c #F2525D",
"b 	c #CB4551",
"c 	c #B63F4B",
"d 	c #973642",
"e 	c #00192C",
"f 	c #131C2E",
"g 	c #3D553E",
"h 	c #648B55",
"i 	c #1C2630",
"j 	c #3B2031",
"k 	c #DA4A55",
"l 	c #DB4A56",
"m 	c #EB505B",
"n 	c #E75161",
"o 	c #C05072",
"p 	c #C15072",
"q 	c #C15272",
"r 	c #DB6F71",
"s 	c #F9856C",
"t 	c #EF555D",
"u 	c #EE515D",
"v 	c #EF515C",
"w 	c #E94F5A",
"x 	c #DC4B56",
"y 	c #562535",
"z 	c #1D222F",
"A 	c #ABA753",
"B 	c #BCB75A",
"C 	c #222B2F",
"D 	c #111C2E",
"E 	c #4E2433",
"F 	c #DE4B57",
"G 	c #ED515D",
"H 	c #E65161",
"I 	c #B55076",
"J 	c #B45076",
"K 	c #B34F76",
"L 	c #E97A6F",
"M 	c #EA5560",
"N 	c #E35163",
"O 	c #E74E59",
"P 	c #5D2736",
"Q 	c #021A2D",
"R 	c #353632",
"S 	c #B4B057",
"T 	c #778E42",
"U 	c #17202E",
"V 	c #512133",
"W 	c #D64954",
"X 	c #F0515C",
"Y 	c #E45162",
"Z 	c #B15077",
"` 	c #B35076",
" .	c #B45077",
"..	c #E76A6B",
"+.	c #EE545F",
"@.	c #C85170",
"#.	c #B95074",
"$.	c #E0565A",
"%.	c #B16052",
"&.	c #3C2A33",
"*.	c #757341",
"=.	c #475535",
"-.	c #362531",
";.	c #E06E60",
">.	c #F0505C",
",.	c #E55162",
"'.	c #B25077",
").	c #DA5167",
"!.	c #DB5167",
"~.	c #AB4C71",
"{.	c #5E2F48",
"].	c #7A3142",
"^.	c #82323F",
"/.	c #AF3E4D",
"(.	c #C55171",
"_.	c #BB5074",
":.	c #F26561",
"<.	c #FB876D",
"[.	c #D35155",
"}.	c #ACA754",
"|.	c #98B54D",
"1.	c #3D4D34",
"2.	c #693B3C",
"3.	c #F77E6A",
"4.	c #F05B5F",
"5.	c #EE515C",
"6.	c #EC515E",
"7.	c #ED515E",
"8.	c #E24D5A",
"9.	c #4C3341",
"0.	c #B7B8B9",
"a.	c #FAFAFA",
"b.	c #EEEDED",
"c.	c #3F322F",
"d.	c #BF424F",
"e.	c #EC505D",
"f.	c #EF505C",
"g.	c #F16763",
"h.	c #F9846C",
"i.	c #F8836B",
"j.	c #EB575C",
"k.	c #532434",
"l.	c #181F2F",
"m.	c #BEB95A",
"n.	c #768E42",
"o.	c #00132A",
"p.	c #EB7E66",
"q.	c #FB9574",
"r.	c #FAA47D",
"s.	c #F05D5F",
"t.	c #EF4D5B",
"u.	c #F14F5C",
"v.	c #7B2E3C",
"w.	c #6C6E72",
"x.	c #FFFFFF",
"y.	c #E9E5E3",
"z.	c #DED6CF",
"A.	c #AE936B",
"B.	c #000829",
"C.	c #ED826C",
"D.	c #F5876F",
"E.	c #FEB685",
"F.	c #F9866C",
"G.	c #F36963",
"H.	c #DF4C57",
"I.	c #672938",
"J.	c #151D2E",
"K.	c #78A762",
"L.	c #455335",
"M.	c #27362F",
"N.	c #753653",
"O.	c #C96371",
"P.	c #FB9573",
"Q.	c #FFBF8A",
"R.	c #F26D65",
"S.	c #F26662",
"T.	c #F67868",
"U.	c #FAA37C",
"V.	c #FA9274",
"W.	c #824041",
"X.	c #605955",
"Y.	c #D9C8B6",
"Z.	c #A18A7F",
"`.	c #9D806A",
" +	c #AF956E",
".+	c #000329",
"++	c #F7B784",
"@+	c #FFBE89",
"#+	c #FDA87D",
"$+	c #FA9775",
"%+	c #F15A5E",
"&+	c #F1515C",
"*+	c #A63A46",
"=+	c #121D2E",
"-+	c #92AE4B",
";+	c #455435",
">+	c #1C1C2E",
",+	c #75334A",
"'+	c #B54F74",
")+	c #CC6473",
"!+	c #F8826B",
"~+	c #F8806A",
"{+	c #FEB585",
"]+	c #FDA27B",
"^+	c #904745",
"/+	c #242330",
"(+	c #917B5E",
"_+	c #CAAB7D",
":+	c #BFA277",
"<+	c #343135",
"[+	c #3C1E31",
"}+	c #F1846B",
"|+	c #F57D6A",
"1+	c #EC5A61",
"2+	c #EF575E",
"3+	c #DE5165",
"4+	c #BE5073",
"5+	c #A53A46",
"6+	c #809945",
"7+	c #697E3E",
"8+	c #031B2D",
"9+	c #712B3A",
"0+	c #953542",
"a+	c #CF506C",
"b+	c #C55371",
"c+	c #FA9B78",
"d+	c #FFBB87",
"e+	c #F57E6B",
"f+	c #DF4F64",
"g+	c #E05064",
"h+	c #EE4F5C",
"i+	c #8A323F",
"j+	c #00172C",
"k+	c #00142C",
"l+	c #00112B",
"m+	c #532234",
"n+	c #D84955",
"o+	c #EE505D",
"p+	c #D2506B",
"q+	c #D95168",
"r+	c #B75075",
"s+	c #E55163",
"t+	c #121C2E",
"u+	c #5F8452",
"v+	c #95B24C",
"w+	c #445335",
"x+	c #1E252F",
"y+	c #6D2A39",
"z+	c #E14C58",
"A+	c #F1525D",
"B+	c #C86E78",
"C+	c #FFB584",
"D+	c #FFBB88",
"E+	c #CE6773",
"F+	c #B24F76",
"G+	c #BE414D",
"H+	c #BF424D",
"I+	c #C76959",
"J+	c #DB6F5F",
"K+	c #F25D5F",
"L+	c #EA515F",
"M+	c #C65170",
"N+	c #A63A45",
"O+	c #293330",
"P+	c #252E2F",
"Q+	c #2B1E2F",
"R+	c #D74955",
"S+	c #E54E59",
"T+	c #E95160",
"U+	c #EE7A6D",
"V+	c #FFBF89",
"W+	c #CD7B7B",
"X+	c #DF5165",
"Y+	c #F8816B",
"Z+	c #EB5660",
"`+	c #C9516F",
" @	c #2B3530",
".@	c #374332",
"+@	c #482233",
"@@	c #D14753",
"#@	c #F0585E",
"$@	c #FFB885",
"%@	c #C36978",
"&@	c #C35071",
"*@	c #E85160",
"=@	c #F36962",
"-@	c #F26261",
";@	c #DD5066",
">@	c #C55071",
",@	c #EA4F5B",
"'@	c #923441",
")@	c #243132",
"!@	c #557863",
"~@	c #1A2331",
"{@	c #984747",
"]@	c #F77166",
"^@	c #F46C63",
"/@	c #EF4E5B",
"(@	c #EF4F5C",
"_@	c #F79274",
":@	c #EB997D",
"<@	c #BA5575",
"[@	c #F1515B",
"}@	c #F0515B",
"|@	c #EB515E",
"1@	c #D3506B",
"2@	c #B25076",
"3@	c #E75060",
"4@	c #BF5072",
"5@	c #D7516A",
"6@	c #B43F4D",
"7@	c #963542",
"8@	c #00162B",
"9@	c #141B2E",
"0@	c #435F52",
"a@	c #532534",
"b@	c #E6645E",
"c@	c #FDAF81",
"d@	c #F89977",
"e@	c #EF525C",
"f@	c #F0565D",
"g@	c #F77D69",
"h@	c #F37367",
"i@	c #F27167",
"j@	c #EB6164",
"k@	c #B55176",
"l@	c #E15164",
"m@	c #F0555D",
"n@	c #F77C69",
"o@	c #5B2636",
"p@	c #0B1A2D",
"q@	c #6D5A52",
"r@	c #3C343A",
"s@	c #232C2F",
"t@	c #8DA849",
"u@	c #071B2D",
"v@	c #EF4F5B",
"w@	c #F89776",
"x@	c #FDB182",
"y@	c #FFBC88",
"z@	c #F98C6F",
"A@	c #F9836B",
"B@	c #F87F6A",
"C@	c #F0595E",
"D@	c #EF545D",
"E@	c #B95475",
"F@	c #EC7C6E",
"G@	c #EF7E6E",
"H@	c #B14F77",
"I@	c #FDB484",
"J@	c #C65257",
"K@	c #4B3B3E",
"L@	c #463A3E",
"M@	c #62514C",
"N@	c #927768",
"O@	c #272A30",
"P@	c #A8A452",
"Q@	c #7C7943",
"R@	c #061B2D",
"S@	c #D74E68",
"T@	c #D8556A",
"U@	c #EA997E",
"V@	c #FA9977",
"W@	c #F57768",
"X@	c #F36A63",
"Y@	c #F16060",
"Z@	c #F67A68",
"`@	c #B55077",
" #	c #DA6E72",
".#	c #F3806E",
"+#	c #B34F78",
"@#	c #F05A5E",
"##	c #FCA97F",
"$#	c #E04856",
"%#	c #C65A5B",
"&#	c #CB6864",
"*#	c #957B6B",
"=#	c #977A6B",
"-#	c #987C6C",
";#	c #997C6C",
">#	c #66544E",
",#	c #131A2D",
"'#	c #525137",
")#	c #A7A352",
"!#	c #903441",
"~#	c #DE5166",
"{#	c #B94E74",
"]#	c #C54E70",
"^#	c #EB505E",
"/#	c #EF535D",
"(#	c #F05D60",
"_#	c #67314B",
":#	c #783E48",
"<#	c #8B4B45",
"[#	c #864846",
"}#	c #5D2E49",
"|#	c #D54A57",
"1#	c #F36862",
"2#	c #FA9272",
"3#	c #F39071",
"4#	c #81494A",
"5#	c #8F7767",
"6#	c #967B6B",
"7#	c #A78A71",
"8#	c #C8A97E",
"9#	c #9E826D",
"0#	c #987C6B",
"a#	c #68554F",
"b#	c #888547",
"c#	c #A6A151",
"d#	c #552535",
"e#	c #F0515D",
"f#	c #CE506D",
"g#	c #F26361",
"h#	c #F4836A",
"i#	c #BB576E",
"j#	c #9C4668",
"k#	c #2E2034",
"l#	c #342136",
"m#	c #202130",
"n#	c #3A3339",
"o#	c #3B3339",
"p#	c #987D6A",
"q#	c #9B796A",
"r#	c #9E796A",
"s#	c #86645A",
"t#	c #452933",
"u#	c #493137",
"v#	c #786A5A",
"w#	c #D6C699",
"x#	c #E9DAA6",
"y#	c #D3B382",
"z#	c #D6B683",
"A#	c #A0846E",
"B#	c #7F675C",
"C#	c #1B1E2F",
"D#	c #1C212F",
"E#	c #878447",
"F#	c #99B74D",
"G#	c #6F6D3F",
"H#	c #462232",
"I#	c #C6444F",
"J#	c #C5434E",
"K#	c #CD506C",
"L#	c #C45070",
"M#	c #C55070",
"N#	c #F1505B",
"O#	c #D86B64",
"P#	c #A76A5C",
"Q#	c #122030",
"R#	c #272933",
"S#	c #61504B",
"T#	c #604F4B",
"U#	c #6C5952",
"V#	c #CFAF80",
"W#	c #B09274",
"X#	c #B19374",
"Y#	c #BDA986",
"Z#	c #B0A07F",
"`#	c #988F70",
" $	c #A39A78",
".$	c #F1E3AD",
"+$	c #EFE1AB",
"@$	c #EDDEA9",
"#$	c #D5B583",
"$$	c #C0A477",
"%$	c #816A5C",
"&$	c #0F192D",
"*$	c #22262F",
"=$	c #7F7C44",
"-$	c #8D8A49",
";$	c #B0AB55",
">$	c #96B34C",
",$	c #131B2E",
"'$	c #993642",
")$	c #EC525F",
"!$	c #DE5066",
"~$	c #D55A66",
"{$	c #BA6E66",
"]$	c #B96E66",
"^$	c #947A6B",
"/$	c #B09375",
"($	c #B49971",
"_$	c #846C60",
":$	c #977B6B",
"<$	c #E1C995",
"[$	c #F1E3AC",
"}$	c #F0E2AC",
"|$	c #F0E1AB",
"1$	c #D1BE8F",
"2$	c #4F443D",
"3$	c #09162C",
"4$	c #1C242F",
"5$	c #62763C",
"6$	c #6F8640",
"7$	c #799143",
"8$	c #475635",
"9$	c #342F37",
"0$	c #7A645A",
"a$	c #2C2934",
"b$	c #221E2F",
"c$	c #542233",
"d$	c #9C7265",
"e$	c #A17A6B",
"f$	c #CEBD94",
"g$	c #D5BA8A",
"h$	c #D0B081",
"i$	c #D4B482",
"j$	c #9B7F6C",
"k$	c #937868",
"l$	c #D8BB88",
"m$	c #EFE2AC",
"n$	c #E8DBA6",
"o$	c #E8DAA6",
"p$	c #E9DBA7",
"q$	c #706A57",
"r$	c #4A4742",
"s$	c #181F2E",
"t$	c #517149",
"u$	c #6F853F",
"v$	c #718740",
"w$	c #97B54D",
"x$	c #536438",
"y$	c #171E2E",
"z$	c #2F2B35",
"A$	c #8B7164",
"B$	c #997D6C",
"C$	c #5F4E4A",
"D$	c #564746",
"E$	c #6D5D4D",
"F$	c #A78B6F",
"G$	c #C1AA85",
"H$	c #EEE0AA",
"I$	c #D7B684",
"J$	c #C7A97B",
"K$	c #B89C73",
"L$	c #A78E69",
"M$	c #000D2B",
"N$	c #181E2E",
"O$	c #B59A71",
"P$	c #BBA177",
"Q$	c #CFC395",
"R$	c #403E3D",
"S$	c #0E172C",
"T$	c #0D162C",
"U$	c #212D31",
"V$	c #202B31",
"W$	c #507048",
"X$	c #57794C",
"Y$	c #56784C",
"Z$	c #7B9343",
"`$	c #151B2E",
" %	c #3E363B",
".%	c #66544F",
"+%	c #967A6A",
"@%	c #C3A47C",
"#%	c #DEC390",
"$%	c #F1E4AD",
"%%	c #927D5F",
"&%	c #645647",
"*%	c #00072A",
"=%	c #03122B",
"-%	c #384D3B",
";%	c #364C3A",
">%	c #374D3B",
",%	c #18202F",
"'%	c #000B2B",
")%	c #000A2A",
"!%	c #00082A",
"~%	c #000027",
"{%	c #485735",
"]%	c #718840",
"^%	c #77A662",
"/%	c #79A763",
"(%	c #689158",
"_%	c #466243",
":%	c #131B2D",
"<%	c #3F363B",
"[%	c #AD936D",
"}%	c #D2B281",
"|%	c #BCA177",
"1%	c #646051",
"2%	c #666151",
"3%	c #405A3F",
"4%	c #4D6C47",
"5%	c #57794D",
"6%	c #4E6D47",
"7%	c #4B6946",
"8%	c #4C6A46",
"9%	c #728940",
"0%	c #8EAA49",
"a%	c #587B4E",
"b%	c #415B40",
"c%	c #1C2530",
"d%	c #1B2530",
"e%	c #1E212F",
"f%	c #222330",
"g%	c #1F2130",
"h%	c #1E262F",
"i%	c #3A523C",
"j%	c #738A41",
"k%	c #5E8351",
"l%	c #789042",
"m%	c #97B44C",
"n%	c #8CA849",
"o%	c #55774C",
"p%	c #304337",
"q%	c #3C4933",
"r%	c #3B4833",
"s%	c #6A7F3E",
"t%	c #708640",
"u%	c #6E843F",
"v%	c #91AE4B",
"w%	c #6C975A",
"x%	c #758C41",
"y%	c #859F46",
"z%	c #8FAB4A",
"A%	c #8CA749",
"B%	c #95B14C",
"C%	c #908D4A",
"D%	c #898647",
"E%	c #7E9744",
"F%	c #A09C4F",
"G%	c #98B64D",
"                                            . . . . . . . . . . . . . . . . .     . . . . .   . . . . . . . . . . . .           ",
". . .                   . . . . . . . . . . . . . . . . . . . . . . . . . . . . . . . . . .   . . . . . . . . . . . .           ",
". . . . . . . . . . . . . . . + + + + + + . . . . . . . . . . . . . . . . . . . . . . . . . . . . . . . . . . . . . . . . . . . ",
". . . . . . . . . . . . . + + + + + + + + + . + + + + . . . . . .       . . . . . . . . . . . . . . . . . . . . . . . . . . . . ",
". . . . . . . . . . . + + + + + + + + + + + + + + + + + . . .             . . . . . . . . . . + + + . . . . . . . . . . . . . . ",
". . . . . . . . . . + + + + + + + + + + + + + + + + + +                           + + + . . + + + + + . . . . . . . . . . . . . ",
". . . . . . . . + + + + + + . . . . . + + + + + + + + + + + +                   + + + + + + + . . + + + . . . . . . + + + . . . ",
". + + . . . + + + + + + + . . . . . . . + + + . . . + + + + + + +       + + + + + . . + + + . . . . + + + . . . . + + + + + . . ",
"+ + + + . . . . . . . . . . . . . . . . + + . . . . . . . . . . . . . . . . . . . . . . . . . . . . . . . . . . + + + + + + + + ",
"+ + + + + + + . . . . . . . . . . . . . . . . . . . . . . . . . . . . . . . . . . + + . . . . . + + + + . . . . + + + + + + + + ",
"+ + + . . . . . . . . . . . . . . . . . . . . . . . @ @ @ @ @ @ . . . @ @ @ . + + + + + . + + + + + + + + . . + + + + . . . + + ",
". . . . . . . . . . . @ @ @ @ @ . . @ @ @ . . .         @ @ @ @ @ . @ @ @ @ @ + + + + + + + + + + + + + + + + + + + . . . . . . ",
". . . . . . . . . . @ @ @ @ @ @ @ @ @ @ @ @ .               @ @ @ @ @ @     @ @ + + + + + + + + + + + + + + + + + + . . . . . . ",
". . . . . . . . @ @ @         @ @ @     @ @                   @ @ @ @         @ @     + + + . . + + . . . + + + + . . . . . . . ",
". . . . . @ @ @ @                                               @ @                     + + . . . . . . . . + + + + + + + + + + ",
"+ + +   @ @                                         + + +         @     . .                 . . . . . . . . + + + + + + + + + + ",
"                          + + +                   + + + + +           . . . .                   . . . . . . + + + + +           ",
"      . . . . . .     + + + + + + +     + + + + + + + + + + + + + . . . . . . . . . . .       . . . . . . + +                   ",
". . . . . . . . . . . . . . . + + + + + + + + + + + + + + + + + + + + + . . . . . . . . . . . . . . . . . . . . . . . . . . . . ",
". . . . . . . . . . . . . . . . . . . + + + + + + + # $ % & & & & & & & & * = - - ; + + + + + + . . . . . . . . . . . . . . . . ",
". .         . . . . . . . . . . . . . . . . . + > , ' ' ) ! ~ { ] ^ / ( _ : ! < ' [ + + + + + + . . . . . . . . . . . . . . . . ",
".             . . . . . . . . . . . . + + + + } | 1 ~ 2 3 4 5 6 7 8 9 0 a b c d e f g h       + . . . . . . . . . . . . . . . . ",
"                    . . . . + + + + + + + + # i 1 j k l m n o p q r s t u u v w x y ' z A B     . . . . . . . . . . . . .       ",
"      . . .           . . . . . . . . . . . C D E F G H p I J J J K L M J I N v v O P Q 1 R S     . . . . . . . . . . . . . .   ",
".   . . . . .           . . . . . . . . . T U V W X Y Z ` ` J J J  ...+.@.` #.X v v $.%.&.' *.    . . . . . . . . . . . . . . . ",
". . . . . . . . . . . . . . . . . . . . . =.-.;.>.v ,.'.).!.` J ~.{.].^./.(._.X v v :.<.[.1 & }.          . . . . . . . . . . . ",
". . . . . . . . . . . . . . . . . . . . |.1.2.3.4.v 5.6.5.v 7.8.9.0.a.b.c.d.e.v f.g.h.i.j.k.D l.m.                  + + + . . . ",
"+ + . . . . . . . . . . . . . . . . . . n.o.p.q.r.s.v f.f.t.u.v.w.x.y.z.A.B.C.D.D.E.F.G.v H.I.J.K.+ + + + + + + + + + + + + + + ",
"+ + + + + + + + + + + . . . . . . . . L.M.N.O.P.Q.R.f.S.T.U.V.W.X.Y.Z.`. +.+++@+#+$+:.%+v &+*+=+K.+ + + + + + + + + + + + + + + ",
"+ + + + + + + . . . . . . . . . ; -+;+>+,+'+J )+#+E.!+~+i.{+]+^+/+(+_+:+<+[+}+|+1+2+3+#.4+X 5+=+K.+ + + + + + + + + + + + + + + ",
"+ . . . . . . . . . . . . . . 6+7+8+9+0+X a+J b+c+d+e+f+g+h+f.v i+j+k+l+m+n+o+p+'.q+` J r+s+5+t+u+. . . . + + + + + + + + + + + ",
". . . . . . . . . . . . . v+w+x+~ y+z+A+v Y #.B+C+D+E+F+` u v v m G+H+I+J+K+L+'.J ` J J J M+N+t+O+. . . . . + . . . + + . . . . ",
". . . . . . . . . . . . |.P+1 Q+R+S+v v v v T+U+V+W+J ` X+v v v v v v Y+h.!+Z+I J J J J J `+N+t+ @. . . . . . . . . . . . . . . ",
"      . . . . . . . . . .@' +@@@f.v v v v v #@D+$@%@r+&@n v X H N *@v v =@F.-@;@` J J ` >@,@'@f )@. . . . . . . . . . . . .     ",
"      . . . . . @ @ @ !@~@t+{@]@^@/@v v (@t._@@+:@<@!.[@}@|@1@_.2@o *@v G.F.!+3@4@2@4+5@6@7@8@9@ @. . . . . . . .               ",
"    . . . . . @ @ @ @ 0@' a@b@F.c@d@e@f@g@g@h@i@j@,.v ).p 4@` k@k@2@l@v m@n@!+f.T+,.*@v o@p@q@r@s@t@. . . .                     ",
". . . @ @ . @ @ @     0@u@S+v@w@x@y@d+z@A@B@C@D@f@v u a+J J E@F@G@H@l@v t.U.I@v@v 5.J@K@L@M@N@r@O@P@. . . .                     ",
". . @ @ @ @ @ @       Q@R@w n S@T@U@V@W@X@v@v Y@Z@f@,.'.J `@ #8 .#+#l@v @###E.$#%#&#*#=#-#;#>#,#'#)#. . . . . . . . . . . . . . ",
". . @ @     @ @       Q@f !#~#'.` {#]#^#f.v /#n@F.(#&@J ` _#:#<#[#}#|#v 1#2#3#4#5#6#7#8#9#0#a#' b#c#      . . . . . . . . . . . ",
"@ @ @                 Q@' d#e#f#I J J _.|@v v g#h#i#j#k#l#m#n#o#p#N@q#r#s#t#u#v#w#x#y#z#A#B#C#D#E#c#        . . . . . . . .     ",
"                . . F#G#' H#I#J#K#L#'.` M#N#v O#P#Q#R#S#T#U#;#-#V#W#X#Y#Z#`# $.$+$@$#$$$%$&$*$=$-$;$  . . . . . . . . .         ",
"              . . . >$=.' ,$2 ~ '$)$~#!$~${$]$^$/$($_$;#-#-#:$:$y#z#z#<$[$[$}$+$+$|$1$2$3$4$5$6$7$. . . . . . . . .             ",
"          . . . . . >$8$' 9$0$a$b$y c$d$e$f$g$h$y#i$j$N@N@N@N@k$y##$#$l$m$+$n$o$p$q$r$,#s$t$u$v$w$. . . . . . . .       . . .   ",
"      . . . . . . . >$x$y$z$A$B$C$D$E$F$G$}$H$I$J$K$L$M$,$,$,$N$O$K$K$P$Q$Q$R$S$T$1 U$V$W$X$Y$Z$. . . . . . .         . . . . . ",
". . . . . . . . . . >$u$x$`$ %.%+%-#@%z##%$%H$%%&%*%=%-%;%;%>%,%'%)%)%!%~%~%,#;+L.{%]%v$X$, > ^%+ . . . . . . . . . . . . . . . ",
". . . . . . . . . + /%(%X$_%1 :%<%r@[%}%|%1%2%9@9@3%4%5%X$X$5%6%7%7%7%7%7%7%8%6$u$u$u$u$9%>$. . . . . . . . . . . . . . . . . . ",
". . . . . . . . . . . 0%a%X$b%c%d%' e%f%g%' h%i i%u$u$j%k%k%k%a%Y$Y$X$u$u$X$X$u$u$6$l%l%m%. . . . . . . . . . . . + + + . . . . ",
". . . . . . . . . . . . n%6$6$a%o%p%q%q%q%r%s%a%t%u%9%v%. . + w%(%(%x%u%u%u%Y$Y$u%y%. . . . . . . . . . . . . . + + + + + . . . ",
". . . . . . . . .     . . z%u$u$u$6$6$6$6$6$u$u$u$A%- . . . . . . . B%-+-+-+-+-+-+; . . . . . . . + + + . . . + + + + + + . . . ",
". . . . . . . .         . . t@x%C%D%D%D%u$u$x%E%; . . . . . . . . . . . . . . . . . . . . . . . + + + + + + + + + + + + + . . . ",
". . . . . .                     m.F%F%F%F%F%G%. . . . . . . + + + + . . . . . . . . . . . . . + + + + + + + + + + + + + + + + + ",
"+ + + + +                             + + + + . . + + + + + + + + + + + . . + + + + . . . . + + + + + + + + + + + + + + + + + + ",
"+ + + . . . . .                     + + + + + + + + + + + + + + + + + + + + + + + + + + + + + + + + + + + + + + + + + + + + + + ",
". . . . . . . . .             . + + + . . . + + + + + + + + + + + + + + + + + + + + + @ @ @ @ + + + + + + + + + + + + + + + + + ",
". . . . .                   . . . . . . . . . . . . + + + + + + + + + + + + + + + + @ @ @ @ @ @ . . . . . . . . @ @ @ @ + + + . ",
". . .                       . . . . . . . + + + + + + + + + + + + + + + + + @ @ @ + @ @ @ @ @ @ @ @ @ @ @ . . @ @ @ @ @ @ @ + . ",
". .                       . . . . . . . . . . + + + + + + + + + + + + + + @ @ @ @ @ @ @ @ @ @ @ @ @ @ @ @ @ @ @       @ @ @ @ . ",
"      . . . . .           . . . . . . . . . . . . + + + + + + + + + + + @ @ @ @ @         @ @ @ @         @ @           @ @ @ @ ",
"  . . . . . . . .           .     . . . . . . . . . . . . + + + + + + + @ @ @               @ @                                 ",
"  . . . . . . . . . .               . . . . . . . . . . . + + + + + @ @ @ @                 @                                   ",
"  .       . . . . . . .       . . .   . . . . . . . . . . .             @                                                       ",
"            . . . . . . . . . . . . . . . . . . . . . . .     . .                                                               ",
"            . . .     . . . . . . . . . . . . . . . . . .   . . . .                 . . .           . .         . .             ",
"            . .           . . . . . . . . . . . . . . . . . . . . . . . . .       . . . . .     . . . . . .   . . . .           "};
