/* XPM */
static char * coin_on_xpm[] = {
"64 64 487 2",
"  	c #BFBA5B",
". 	c #9BB94E",
"+ 	c #79A863",
"@ 	c #679175",
"# 	c #373832",
"$ 	c #292C30",
"% 	c #1C2632",
"& 	c #1B2531",
"* 	c #B1AC56",
"= 	c #B2AD56",
"- 	c #848146",
"; 	c #161C2E",
"> 	c #020F29",
", 	c #625647",
"' 	c #716C58",
") 	c #716B58",
"! 	c #59554A",
"~ 	c #0D162C",
"{ 	c #2E3031",
"] 	c #8D8A49",
"^ 	c #181E2E",
"/ 	c #0D172D",
"( 	c #333641",
"_ 	c #DEDEE0",
": 	c #E9D8A7",
"< 	c #F0E2AC",
"[ 	c #E3D6A3",
"} 	c #C8BC90",
"| 	c #000028",
"1 	c #767341",
"2 	c #535238",
"3 	c #000B2A",
"4 	c #7B745E",
"5 	c #E6D2A5",
"6 	c #FEFDF8",
"7 	c #F5EDCF",
"8 	c #EFE1AB",
"9 	c #C2B78D",
"0 	c #817A62",
"a 	c #010F2B",
"b 	c #7A7743",
"c 	c #03132C",
"d 	c #C8B082",
"e 	c #EBDEAB",
"f 	c #FDFCF8",
"g 	c #FEFEFC",
"h 	c #EFE0A8",
"i 	c #EDDFAA",
"j 	c #898168",
"k 	c #667B3D",
"l 	c #73A05F",
"m 	c #111A2D",
"n 	c #74634F",
"o 	c #DBBF8C",
"p 	c #FCF9F0",
"q 	c #FFFFFF",
"r 	c #FFFEFD",
"s 	c #F6EED2",
"t 	c #EFE2AE",
"u 	c #EFE0A9",
"v 	c #EFE1A9",
"w 	c #EFE1AA",
"x 	c #F1E6BA",
"y 	c #CFD0D2",
"z 	c #000022",
"A 	c #6B955A",
"B 	c #554A41",
"C 	c #D3B381",
"D 	c #EDDEA7",
"E 	c #FBF8EF",
"F 	c #FAF6E8",
"G 	c #FDFBF6",
"H 	c #FFFFFE",
"I 	c #F2E6BB",
"J 	c #FEFDFB",
"K 	c #EFE2AD",
"L 	c #FAF6E7",
"M 	c #EFE1AC",
"N 	c #F0E3B2",
"O 	c #F6EFD5",
"P 	c #F1E5BA",
"Q 	c #D9D9DA",
"R 	c #342E31",
"S 	c #20292F",
"T 	c #77A662",
"U 	c #2D3831",
"V 	c #171C2E",
"W 	c #544940",
"X 	c #D6B683",
"Y 	c #EFE0AA",
"Z 	c #F9F5E5",
"` 	c #FDFCF7",
" .	c #F8F2DD",
"..	c #F1E4B6",
"+.	c #F5EDD0",
"@.	c #F2E7BF",
"#.	c #F7F1DB",
"$.	c #F7F0D9",
"%.	c #F7F0D8",
"&.	c #F0EFEB",
"*.	c #CEB282",
"=.	c #00112B",
"-.	c #5F8552",
";.	c #90AC4A",
">.	c #00082A",
",.	c #CEAF7F",
"'.	c #D5B482",
").	c #F0E2AF",
"!.	c #F8F3E0",
"~.	c #F8F2DE",
"{.	c #EFE1AD",
"].	c #F9F4E3",
"^.	c #F2E6BC",
"/.	c #DEC592",
"(.	c #00102B",
"_.	c #314538",
":.	c #282733",
"<.	c #554646",
"[.	c #D1B281",
"}.	c #E2CB97",
"|.	c #EFE2AB",
"1.	c #F4EAC8",
"2.	c #000027",
"3.	c #5B5A3A",
"4.	c #97B44C",
"5.	c #2F2B35",
"6.	c #766058",
"7.	c #EFE2AC",
"8.	c #DABE8B",
"9.	c #EAD9A4",
"0.	c #AF956D",
"a.	c #141B2E",
"b.	c #333531",
"c.	c #1F272F",
"d.	c #977B6B",
"e.	c #D3B382",
"f.	c #EADAA5",
"g.	c #DABE8C",
"h.	c #E9D8A3",
"i.	c #EBDBA6",
"j.	c #C2B389",
"k.	c #323431",
"l.	c #171D2E",
"m.	c #2B2934",
"n.	c #D5B583",
"o.	c #D4B482",
"p.	c #E8D5A0",
"q.	c #EADAA4",
"r.	c #DABD8B",
"s.	c #F1E3AD",
"t.	c #615D4F",
"u.	c #6A9459",
"v.	c #5E713B",
"w.	c #0A172C",
"x.	c #886F62",
"y.	c #967A6B",
"z.	c #D1B181",
"A.	c #E8D6A2",
"B.	c #DDC390",
"C.	c #E8D5A1",
"D.	c #C6A97B",
"E.	c #000C2B",
"F.	c #628954",
"G.	c #76A361",
"H.	c #8EAA4A",
"I.	c #323D31",
"J.	c #333E31",
"K.	c #20282F",
"L.	c #151C2E",
"M.	c #625546",
"N.	c #B39674",
"O.	c #957A6A",
"P.	c #9B7F6D",
"Q.	c #CDAE80",
"R.	c #C2A37B",
"S.	c #D5B582",
"T.	c #E4CF9B",
"U.	c #D8BB88",
"V.	c #DFC793",
"W.	c #E1CA96",
"X.	c #E9D7A2",
"Y.	c #D2B281",
"Z.	c #000029",
"`.	c #819A45",
" +	c #131A2D",
".+	c #555248",
"++	c #565348",
"@+	c #5B564A",
"#+	c #D4B684",
"$+	c #B59876",
"%+	c #BFA17A",
"&+	c #A98C71",
"*+	c #D6B785",
"=+	c #E3CD99",
"-+	c #EDDDA7",
";+	c #E0C895",
">+	c #EDDDA8",
",+	c #E1CB97",
"'+	c #D5B684",
")+	c #E5D19D",
"!+	c #E7D5A0",
"~+	c #D2B382",
"{+	c #A58970",
"]+	c #786357",
"^+	c #1D202F",
"/+	c #618753",
"(+	c #658C55",
"_+	c #F1E3AC",
":+	c #E5D19C",
"<+	c #CAAB7F",
"[+	c #987C6B",
"}+	c #95796A",
"|+	c #9E826D",
"1+	c #CFAF80",
"2+	c #D5B483",
"3+	c #E0C995",
"4+	c #D6B583",
"5+	c #A0846E",
"6+	c #9C806D",
"7+	c #CCAD80",
"8+	c #AF9770",
"9+	c #BEB48A",
"0+	c #ACA27D",
"a+	c #000024",
"b+	c #000729",
"c+	c #859F46",
"d+	c #6C6755",
"e+	c #EBDDA8",
"f+	c #EBDAA5",
"g+	c #D8B987",
"h+	c #D4B483",
"i+	c #A58870",
"j+	c #A68970",
"k+	c #B89A77",
"l+	c #CFB081",
"m+	c #AE9174",
"n+	c #C6A77C",
"o+	c #927C5E",
"p+	c #CBAC7F",
"q+	c #B39575",
"r+	c #A48770",
"s+	c #CEAF80",
"t+	c #D7B987",
"u+	c #EEDFA9",
"v+	c #EDDFA9",
"w+	c #CCC093",
"x+	c #232C2F",
"y+	c #08152C",
"z+	c #BEA87D",
"A+	c #B79B71",
"B+	c #7B6952",
"C+	c #BFAE84",
"D+	c #D6B784",
"E+	c #C3A57C",
"F+	c #9F836E",
"G+	c #B39675",
"H+	c #B99B78",
"I+	c #AC8F72",
"J+	c #AB8E72",
"K+	c #5C4C49",
"L+	c #000C2A",
"M+	c #937869",
"N+	c #94796A",
"O+	c #D2B381",
"P+	c #74644F",
"Q+	c #E1C996",
"R+	c #756F5A",
"S+	c #3B4932",
"T+	c #181F2E",
"U+	c #11192D",
"V+	c #695A4A",
"W+	c #B49970",
"X+	c #000023",
"Y+	c #8E866A",
"Z+	c #F1E4AD",
"`+	c #C2A578",
" @	c #D7B886",
".@	c #BB9D78",
"+@	c #AF9274",
"@@	c #B49776",
"#@	c #9D826B",
"$@	c #302C35",
"%@	c #4C423D",
"&@	c #DBC08D",
"*@	c #DFC794",
"=@	c #B3976F",
"-@	c #191E2E",
";@	c #0B152C",
">@	c #799143",
",@	c #92AF4B",
"'@	c #6D833F",
")@	c #C5BA8F",
"!@	c #DACE9D",
"~@	c #EDE0AA",
"{@	c #E3CE9A",
"]@	c #C8AB7C",
"^@	c #393436",
"/@	c #ECDCA6",
"(@	c #D0B181",
"_@	c #D6B684",
":@	c #A88F6A",
"<@	c #151B2E",
"[@	c #4F453E",
"}@	c #D8BD8B",
"|@	c #EEE0AA",
"1@	c #EBDBA5",
"2@	c #C7AB7D",
"3@	c #C3A679",
"4@	c #262631",
"5@	c #19212F",
"6@	c #3A5249",
"7@	c #141A2E",
"8@	c #C0B58B",
"9@	c #BDB188",
"0@	c #76644E",
"a@	c #3D3D3D",
"b@	c #DDD09E",
"c@	c #BCB189",
"d@	c #D1B483",
"e@	c #F2E4AD",
"f@	c #C7BC90",
"g@	c #171D30",
"h@	c #2D3855",
"i@	c #151A2B",
"j@	c #605C4E",
"k@	c #BFB48A",
"l@	c #F2E3AD",
"m@	c #C3B88D",
"n@	c #7E7860",
"o@	c #1B202E",
"p@	c #638C71",
"q@	c #272933",
"r@	c #575349",
"s@	c #565248",
"t@	c #898267",
"u@	c #E4D6A2",
"v@	c #E8DBA6",
"w@	c #958C6E",
"x@	c #2A2C34",
"y@	c #3B486C",
"z@	c #404E75",
"A@	c #3D4B70",
"B@	c #3E4B71",
"C@	c #1A2135",
"D@	c #1F2330",
"E@	c #171E2F",
"F@	c #06152C",
"G@	c #09172C",
"H@	c #151A2C",
"I@	c #041129",
"J@	c #ADA37E",
"K@	c #ABA27D",
"L@	c #000E2A",
"M@	c #0A142C",
"N@	c #161B2D",
"O@	c #151B2D",
"P@	c #384568",
"Q@	c #3F6180",
"R@	c #3F6C86",
"S@	c #404D74",
"T@	c #3D4B71",
"U@	c #313C5C",
"V@	c #2A3450",
"W@	c #000A2A",
"X@	c #1F232F",
"Y@	c #473C3E",
"Z@	c #977D68",
"`@	c #343135",
" #	c #364265",
".#	c #171E30",
"+#	c #1D243A",
"@#	c #2B3552",
"##	c #3F4D73",
"$#	c #405B7C",
"%#	c #3E8698",
"&#	c #3F6A85",
"*#	c #405679",
"=#	c #364263",
"-#	c #383336",
";#	c #CBAD7E",
">#	c #B69876",
",#	c #8A7063",
"'#	c #232331",
")#	c #1E232F",
"!#	c #534544",
"~#	c #967A6A",
"{#	c #C0A377",
"]#	c #1A1E2E",
"^#	c #26304A",
"/#	c #414E76",
"(#	c #374266",
"_#	c #364163",
":#	c #364063",
"<#	c #3E4A70",
"[#	c #404D75",
"}#	c #40607F",
"|#	c #3E8597",
"1#	c #3E8396",
"2#	c #3F768D",
"3#	c #2D2B33",
"4#	c #C5A77A",
"5#	c #997D6C",
"6#	c #574947",
"7#	c #1C212E",
"8#	c #66544E",
"9#	c #BC9E79",
"0#	c #D7B784",
"a#	c #3F6F89",
"b#	c #3E8497",
"c#	c #405579",
"d#	c #3F6481",
"e#	c #3E8798",
"f#	c #405C7D",
"g#	c #303B5A",
"h#	c #302D33",
"i#	c #CBAC7D",
"j#	c #322D36",
"k#	c #917768",
"l#	c #9D8664",
"m#	c #171C2D",
"n#	c #333F5F",
"o#	c #3F5F7E",
"p#	c #3F5E7E",
"q#	c #405F7F",
"r#	c #405F7E",
"s#	c #2D3654",
"t#	c #4C433D",
"u#	c #A5896F",
"v#	c #9D816D",
"w#	c #8D7365",
"x#	c #2C2934",
"y#	c #8C8948",
"z#	c #9AB84E",
"A#	c #161D2E",
"B#	c #242431",
"C#	c #7E675C",
"D#	c #735E56",
"E#	c #151B2C",
"F#	c #364264",
"G#	c #19202F",
"H#	c #0E182D",
"I#	c #0D182D",
"J#	c #0F192D",
"K#	c #6D985B",
"L#	c #52734A",
"M#	c #456042",
"N#	c #5D8251",
"O#	c #778F42",
"P#	c #5C8150",
"Q#	c #405A3F",
"R#	c #415B40",
"S#	c #334839",
"T#	c #3D563E",
"U#	c #536438",
"V#	c #3E573E",
"W#	c #4A6745",
"X#	c #76A561",
"Y#	c #435E41",
"Z#	c #1C2530",
"`#	c #384E3B",
" $	c #374D3B",
".$	c #354A3A",
"+$	c #465535",
"@$	c #4D5D36",
"#$	c #4F6037",
"$$	c #4E5E37",
"%$	c #75A260",
"&$	c #556738",
"*$	c #1D2830",
"=$	c #1E2930",
"-$	c #2B3C35",
";$	c #3B533D",
">$	c #1E2830",
",$	c #304337",
"'$	c #95B14C",
")$	c #536538",
"!$	c #7B9343",
"~$	c #4F5F37",
"{$	c #5F733B",
"]$	c #849E46",
"^$	c #8DA949",
"/$	c #63773C",
"($	c #62763C",
"_$	c #596C39",
":$	c #6F853F",
"<$	c #8BA648",
"[$	c #94B04B",
"                                            . . . . . . . . . . . . . . . . .     . . . . .   . . . . . . . . . . . .           ",
". . .                   . . . . . . . . . . . . . . . . . . . . . . . . . . . . . . . . . .   . . . . . . . . . . . .           ",
". . . . . . . . . . . . . . . + + + + + + . . . . . . . . . . . . . . . . . . . . . . . . . . . . . . . . . . . . . . . . . . . ",
". . . . . . . . . . . . . + + + + + + + + + . + + + + . . . . . .       . . . . . . . . . . . . . . . . . . . . . . . . . . . . ",
". . . . . . . . . . . + + + + + + + + + + + + + + + + + . . .             . . . . . . . . . . + + + . . . . . . . . . . . . . . ",
". . . . . . . . . . + + + + + + + + + + + + + + + + + +                           + + + . . + + + + + . . . . . . . . . . . . . ",
". . . . . . . . + + + + + + . . . . . + + + + + + + + + + + +                   + + + + + + + . . + + + . . . . . . + + + . . . ",
". + + . . . + + + + + + + . . . . . . . + + + . . . + + + + + + +       + + + + + . . + + + . . . . + + + . . . . + + + + + . . ",
"+ + + + . . . . . . . . . . . . . . . . + + . . . . . . . . . . . . . . . . . . . . . . . . . . . . . . . . . . + + + + + + + + ",
"+ + + + + + + . . . . . . . . . . . . . . . . . . . . . . . . . . . . . . . . . . + + . . . . . + + + + . . . . + + + + + + + + ",
"+ + + . . . . . . . . . . . . . . . . . . . . . . . @ @ @ @ @ @ . . . @ @ @ . + + + + + . + + + + + + + + . . + + + + . . . + + ",
". . . . . . . . . . . @ @ @ @ @ . . @ @ @ . . .         @ @ @ @ @ . @ @ @ @ @ + + + + + + + + + + + + + + + + + + + . . . . . . ",
". . . . . . . . . . @ @ @ @ @ @ @ @ @ @ @ @ .               @ @ @ @ @ @     @ @ + + + + + + + + + + + + + + + + + + . . . . . . ",
". . . . . . . . @ @ @         @ @ @     @ @         # $ $ $ $ % % % & *       @ @     + + + . . + + . . . + + + + . . . . . . . ",
". . . . . @ @ @ @                             = - ; ; > , ' ) ) ) ) ! ~ { ]             + + . . . . . . . . + + + + + + + + + + ",
"+ + +   @ @                                   ^ ; / ( _ : < < < < < [ } | ; 1               . . . . . . . . + + + + + + + + + + ",
"                          + + +           2 ; 3 4 5 6 7 8 8 8 8 8 8 8 8 9 0 a b                 . . . . . . + + + + +           ",
"      . . . . . .     + + + + + + +     + ; c d e f g h 8 8 8 8 8 8 8 8 8 i j ; k . . .       . . . . . . + +                   ",
". . . . . . . . . . . . . . . + + + + l ^ m n o p q r s t u 8 8 v 8 8 8 w x y z ; . . . . . . . . . . . . . . . . . . . . . . . ",
". . . . . . . . . . . . . . . . . . . A ; B C D E F G H I J K w L M 8 N O P q Q R S T + + + + + . . . . . . . . . . . . . . . . ",
". .         . . . . . . . . . . . . . U V W X Y p Z `  ...q K +.q @.w #.$.N %.&.*.=.-.+ + + + + . . . . . . . . . . . . . . . . ",
".             . . . . . . . . . . . ;.; >.,.'.8 ).!.).t 8 ~.{.].G ^.u f s 8 8 )./.(.; +       + . . . . . . . . . . . . . . . . ",
"                    . . . . + + + + _.:.<.[.'.8 8 w }.|.8 w 8 w u 8 w 1.v 8 8 8 8 2.; 3.        . . . . . . . . . . . . .       ",
"      . . .           . . . . . . 4.; 5.6.[.'.8 8 7.8.7.8 8 8 8 8 8 8 8 8 9.8 8 8 0.a.b.          . . . . . . . . . . . . . .   ",
".   . . . . .           . . . . . c.; 5.d.e.'.9.f.7.g.7.8 8 8 8 h.i.8 8 < 8.7.8 8 j.a.k.          . . . . . . . . . . . . . . . ",
". . . . . . . . . . . . . . . . . l.; m.d.e.n.o.h.8 < 8 8 8 8 8 p.q.8 8 < r.7.8 8 s.t.; u.+ +             . . . . . . . . . . . ",
". . . . . . . . . . . . . . . . v.; w.x.y.z.n.n.A.|.B.7.8 8 8 8 p.q.8 8 8 i.8 8 8 C.D.E.F.G.+ +                     + + + . . . ",
"+ + . . . . . . . . . . H.I.J.J.K.L.M.N.O.P.Q.R.S.T.U.< 8 8 8 8 V.W.< 8 < r.< X.h./.Y.Z.; _.+ + + + + + + + + + + + + + + + + + ",
"+ + + + + + + + + + + . `. +.+++++@+#+n.$+d.%+&+n.n.*+=+i.-+8 8 n.n.;+>+,+'+)+!+*+~+{+]+^+; /+(+(+(++ + + + + + + + + + + + + + ",
"+ + + + + + + . . . . . `.2.< _+_+_+:+n.<+[+}+|+1+X n.2+'.o.;+3+n.n.n.'.4+n.'.'.n.5+6+7+8+9+0+a+b+; + + + + + + + + + + + + + + ",
"+ . . . . . . . . . . . c+L.d+e+8 8 f+g+n.h+h+i+j+k+n.n.Q.l+n.n.n.h+m+n+o+p+p+n.q+r+s+n.t+u+8 v+w+~ . . . + + + + + + + + + + + ",
". . . . . . . . . . . . . x+y+z+B.B.A+B+C+D+n.X X n.n.E+F+G+h+H+I+J+d.K+L+M+N+n.n.n.O+P+z.8.Q+< R+S+. . . . + . . . + + . . . . ",
". . . . . . . . . . . . . . T+U+V+W+X+Y+Z+*+`+B. @'.n..@+@X n.n.X @@#@$@; %@,.n.&@< *@=@-@E./ ;@; >@. . . . . . . . . . . . . . ",
"      . . . . . . . . . . . ,@'@L+)@!@~@{@]@^@8 /@f+U.(@n.'+_@_@_@_@:@L.; <@[@}@|@8 8 1@2@3@4@; 5@. . . . . . . . . . . . .     ",
"      . . . . . @ @ @ @ @ . . @ 6@7@8@9@0@a@b@_+_+c@d@o.*@h.7.s.e@f@| g@h@; i@j@k@l@_+e@m@n@L.o@. . . . . . . . .               ",
"    . . . . . @ @ @ @ @ @ @ @ @ p@l.; ; ; q@r@++s@t@u@>+8 8 v@w@r@x@g@y@z@A@B@C@V r@++r@D@; V = . . . . . .                     ",
". . . @ @ . @ @ @     @ @ @ @ @     E@L.F@G@; ; H@I@; J@K@J@L@M@N@O@P@z@Q@R@S@T@U@V@; V W@=.w.X@    . . . .                     ",
". . @ @ @ @ @ @         @ @ @     ^ a.Y@}+Z@`@O@P@ #.#; ; ; ; +#@###z@$#%#%#&#*#z@=#; -#;#>#,#'#)#  . . . . . . . . . . . . . . ",
". . @ @     @ @                   l.!#~#+@n.{#]#^#/#(#=#_#:#:#<#[#S@}#|#%#%#%#1#2#_#3#4#n._@5#6#7#        . . . . . . . . . . . ",
"@ @ @                             l.8#d.9#n.0#^+; a#b#c#d#e#%#%#%#%#%#%#%#%#%#b#f#g#h#i#n.1+5#6#o@          . . . . . . . .     ",
"                . . .           . l.j#k#F+e.l#m#n#o#p#*#q#r#r#r#r#r#r#r#r#r#r#$#s#O@; t#u#v#w#x#y#    . . . . . . . . .         ",
"              . . . . .       . . z#A#B#C#D#F@; O@E#g@F#=#=#=#=#=#=#=#=#=#=#F#O@; ; G#A#H#I#J#^ . . . . . . . . . .             ",
"          . . . . . . .       . . + K#L#<@L.; ; ; ; ; ; ; ; ; ; ; ; ; ; ; ; ; ; ; l.M#A N#N#O#;.. . . . . . . . .       . . .   ",
"      . . . . . . . . . . .   . . + + P#Q#R#R#S#5@; ; A#T#R#R#R#U#U#R#T#A#; ; ; T+U#V#W#X#+ + . . . . . . . .         . . . . . ",
". . . . . . . . . . . . . . . + + + + Y#V#V#V#V#V#Z#; ; `#V#V#V#V#V#V# $; ; .$+$@$#$#$$$%$+ + + + . . . . . . . . . . . . . . . ",
". . . . . . . . . + + + + + + + + + + &$#$#$V#V#V#*$=$-$V#V#V#V#V#V#V#;$>$=$,$#$#$#$#$$$'$. . . . . . . . . . . . . . . . . . . ",
". . . . . . . . . . . . + + + + + + . '$)$#$#$V#V##$#$#$V#V#V#V#V#V#V##$#$V#V##$#$#$#$O#. . . . . . . . . . . . . + + + . . . . ",
". . . . . . . . . . . . . . . + + + . . H.!$~$V##$#$#$#$#$#$V#V#V#V##$#$#$#$V#V##${$]$. . . . . . . . . . . . . + + + + + . . . ",
". . . . . . . . .     . . . . . . . . . . . . ^$/$/$($~$~$~$~$~$~$~$~$~$_$/$/$:$. . . . . . . . . + + + . . . + + + + + + . . . ",
". . . . . . . .         . . . .         . . . . . . . <$<$<$<$<$<$<$<$<$[$. . . . . . . . . . . + + + + + + + + + + + + + . . . ",
". . . . . .                                 . . . . . . . . + + + + . . . . . . . . . . . . . + + + + + + + + + + + + + + + + + ",
"+ + + + +                             + + + + . . + + + + + + + + + + + . . + + + + . . . . + + + + + + + + + + + + + + + + + + ",
"+ + + . . . . .                     + + + + + + + + + + + + + + + + + + + + + + + + + + + + + + + + + + + + + + + + + + + + + + ",
". . . . . . . . .             . + + + . . . + + + + + + + + + + + + + + + + + + + + + @ @ @ @ + + + + + + + + + + + + + + + + + ",
". . . . .                   . . . . . . . . . . . . + + + + + + + + + + + + + + + + @ @ @ @ @ @ . . . . . . . . @ @ @ @ + + + . ",
". . .                       . . . . . . . + + + + + + + + + + + + + + + + + @ @ @ + @ @ @ @ @ @ @ @ @ @ @ . . @ @ @ @ @ @ @ + . ",
". .                       . . . . . . . . . . + + + + + + + + + + + + + + @ @ @ @ @ @ @ @ @ @ @ @ @ @ @ @ @ @ @       @ @ @ @ . ",
"      . . . . .           . . . . . . . . . . . . + + + + + + + + + + + @ @ @ @ @         @ @ @ @         @ @           @ @ @ @ ",
"  . . . . . . . .           .     . . . . . . . . . . . . + + + + + + + @ @ @               @ @                                 ",
"  . . . . . . . . . .               . . . . . . . . . . . + + + + + @ @ @ @                 @                                   ",
"  .       . . . . . . .       . . .   . . . . . . . . . . .             @                                                       ",
"            . . . . . . . . . . . . . . . . . . . . . . .     . .                                                               ",
"            . . .     . . . . . . . . . . . . . . . . . .   . . . .                 . . .           . .         . .             ",
"            . .           . . . . . . . . . . . . . . . . . . . . . . . . .       . . . . .     . . . . . .   . . . .           "};
