/* XPM */
static char * player_still_xpm[] = {
"64 64 6 1",
" 	c None",
".	c #161C2E",
"+	c #FFFFFF",
"@	c #EFE1AB",
"#	c #E3C18C",
"$	c #977B6B",
"                                                                ",
"                                                                ",
"                                                                ",
"                                                                ",
"                                                                ",
"                                                                ",
"                                                                ",
"                                                                ",
"                                                                ",
"                                                                ",
"                                                                ",
"                                                                ",
"                                                                ",
"                                                                ",
"                                                                ",
"                         .....    ....                          ",
"                       .................                        ",
"                   .......++................                    ",
"                .........+++++....+++.........                  ",
"               .........+++++++@++++++........                  ",
"               ...@+++@@++++++++++++++@#+++....                 ",
"              ...@+++++@++++++##++++++##++++...                 ",
"              ..@@+++++++++++##++++++###+++++...                ",
"            ....#@+++++++@@@###+++++@##@++++@...                ",
"            ....##@+++++@#@#@++@@+@@@@@@++++@@......            ",
"           ....++##@@+++@###+++++@@@++++@++@###......           ",
"           ..+++++##++++++##+++++@@@+++++@@@###......           ",
"          ...++++++#++++++##+++++@@++++++@@@@#.......           ",
"          ...++++++#++++++@#@++@@@@+++++@@###$.....             ",
"          ...+++++@@+++++@@@@@@@@@@@++...@@........             ",
"          ...@+++@@@@++@++++@@+++@@#@....@.........             ",
"           ...@@@+++@@@++++++++++++##...@@.......++.            ",
"           ....@@++++@@++++++++++++##..@@@.......+..            ",
"           ....#@++++##+++++#++++++#@..@++...+++.++..           ",
"           ....#@@@@@##++++##+++@##@@@@+++...+.+.....           ",
"            ...#@@####@@@@@@@@@@@@@@@@@+++...........           ",
"            ..@##@@@@@@++++@@@@@++++@@@+++...........           ",
"           ...####@@+@@+++++@@@+++++++@@###..........           ",
"           ...#$###@+++++++++#@++++++@@###$..........           ",
"           ....$###$###@@@@@####@@@@@######$$.......            ",
"            ....$$$$####@@@@######@@#######$$......             ",
"             .....$$#####$$$#########$$####$....                ",
"               ....$$$##$$$###$$$###$$$$$$.....                 ",
"               .....$$..$$.....$$$$$$$.........                 ",
"                ..............................                  ",
"                 ............................                   ",
"                   .......           ......                     ",
"                    ...                ...                      ",
"                                                                ",
"                                                                ",
"                                                                ",
"                                                                ",
"                                                                ",
"                                                                ",
"                                                                ",
"                                                                ",
"                                                                ",
"                                                                ",
"                                                                ",
"                                                                ",
"                                                                ",
"                                                                ",
"                                                                ",
"                                                                "};
