/* XPM */
static char * player_tree_xpm[] = {
"64 64 622 2",
"  	c #BFBA5B",
". 	c #9BB94E",
"+ 	c #97B44C",
"@ 	c #262F30",
"# 	c #79A863",
"$ 	c #273030",
"% 	c #667B3D",
"& 	c #222B2F",
"* 	c #787642",
"= 	c #1F232F",
"- 	c #B4B057",
"; 	c #2A2D30",
"> 	c #161C2E",
", 	c #9C984E",
"' 	c #313932",
") 	c #424C36",
"! 	c #9D994E",
"~ 	c #5A7E4F",
"{ 	c #81934A",
"] 	c #B0C95D",
"^ 	c #625F3B",
"/ 	c #343F32",
"( 	c #80934A",
"_ 	c #BAD462",
": 	c #525E3A",
"< 	c #8FAB4A",
"[ 	c #0D122D",
"} 	c #BDD763",
"| 	c #5C6A3D",
"1 	c #5A6C3A",
"2 	c #679175",
"3 	c #61886E",
"4 	c #748545",
"5 	c #BED863",
"6 	c #94A952",
"7 	c #2B3530",
"8 	c #222F35",
"9 	c #A3BA58",
"0 	c #BCD663",
"a 	c #00092D",
"b 	c #658F73",
"c 	c #B6B157",
"d 	c #434E36",
"e 	c #BCD763",
"f 	c #3B8146",
"g 	c #222F36",
"h 	c #888547",
"i 	c #414B35",
"j 	c #4AA251",
"k 	c #1F242F",
"l 	c #B4AF57",
"m 	c #838046",
"n 	c #4C5738",
"o 	c #8EC65E",
"p 	c #171F2E",
"q 	c #AAA653",
"r 	c #02022C",
"s 	c #B7D060",
"t 	c #A2CD60",
"u 	c #2F5D3A",
"v 	c #161B2E",
"w 	c #161D2E",
"x 	c #245438",
"y 	c #B7D361",
"z 	c #BFD863",
"A 	c #51A352",
"B 	c #FEFEFE",
"C 	c #68666E",
"D 	c #7FBC5A",
"E 	c #5CA653",
"F 	c #17212F",
"G 	c #FFFFFF",
"H 	c #F9F9F9",
"I 	c #2D5939",
"J 	c #82C15C",
"K 	c #ABCF61",
"L 	c #A9CF60",
"M 	c #ADD161",
"N 	c #244635",
"O 	c #6E6F73",
"P 	c #45914B",
"Q 	c #AFD161",
"R 	c #80C05C",
"S 	c #78BD5B",
"T 	c #ACD061",
"U 	c #4D9C4F",
"V 	c #14122D",
"W 	c #EFE1AB",
"X 	c #FBFBFB",
"Y 	c #2E3D3D",
"Z 	c #63B859",
"` 	c #BED763",
" .	c #86C25D",
"..	c #B3D362",
"+.	c #5BB659",
"@.	c #9BC95F",
"#.	c #6AB659",
"$.	c #152432",
"%.	c #656050",
"&.	c #E3C18C",
"*.	c #D0D0D1",
"=.	c #1A2A30",
"-.	c #A0CC60",
";.	c #A8CE60",
">.	c #96C75E",
",.	c #59B659",
"'.	c #81C05C",
").	c #93C65E",
"!.	c #2A6947",
"~.	c #584D42",
"{.	c #3B3C47",
"].	c #529A4E",
"^.	c #B8D562",
"/.	c #5CB659",
"(.	c #A6CD60",
"_.	c #6DBA5A",
":.	c #72BC5B",
"<.	c #58B659",
"[.	c #8EC55D",
"}.	c #BAD663",
"|.	c #3D9A5E",
"1.	c #1C1D2E",
"2.	c #D8B886",
"3.	c #F0F0F0",
"4.	c #1A2D30",
"5.	c #71B357",
"6.	c #9CCA5F",
"7.	c #68B95A",
"8.	c #B5D462",
"9.	c #5AB659",
"0.	c #77BD5B",
"a.	c #44A662",
"b.	c #287B5A",
"c.	c #282A33",
"d.	c #837C63",
"e.	c #2B5B3A",
"f.	c #B4D362",
"g.	c #57B559",
"h.	c #61B859",
"i.	c #6FBB5A",
"j.	c #55B559",
"k.	c #51AE5E",
"l.	c #5BB758",
"m.	c #2A8A64",
"n.	c #1B2431",
"o.	c #E5E6E6",
"p.	c #FDFDFD",
"q.	c #1A142F",
"r.	c #54AA54",
"s.	c #6FBB5B",
"t.	c #88C35D",
"u.	c #B2D262",
"v.	c #5FB759",
"w.	c #46A563",
"x.	c #59B559",
"y.	c #4AA961",
"z.	c #2A845F",
"A.	c #282732",
"B.	c #D4D5D5",
"C.	c #234334",
"D.	c #5AB559",
"E.	c #B9D562",
"F.	c #47A662",
"G.	c #3D9F66",
"H.	c #51AF5E",
"I.	c #2E9167",
"J.	c #182C33",
"K.	c #D7CB9B",
"L.	c #41434B",
"M.	c #428647",
"N.	c #7CBF5C",
"O.	c #66B95A",
"P.	c #6CBA5A",
"Q.	c #53B05D",
"R.	c #359A68",
"S.	c #58B55B",
"T.	c #29805D",
"U.	c #746D59",
"V.	c #E5E5E5",
"W.	c #18212F",
"X.	c #58B358",
"Y.	c #4FAC5F",
"Z.	c #58B45A",
"`.	c #76BD5B",
" +	c #5BB759",
".+	c #32986A",
"++	c #2C6444",
"@+	c #59B55A",
"#+	c #57B35B",
"$+	c #2F966A",
"%+	c #18222F",
"&+	c #D6B685",
"*+	c #977B6B",
"=+	c #A7A8AA",
"-+	c #1E5042",
";+	c #339869",
">+	c #9DCA5F",
",+	c #55B15C",
"'+	c #309468",
")+	c #3F7D43",
"!+	c #3C9F67",
"~+	c #3E9F66",
"{+	c #272733",
"]+	c #CACACB",
"^+	c #193436",
"/+	c #48A45F",
"(+	c #42A265",
"_+	c #40A165",
":+	c #91C65E",
"<+	c #5EB759",
"[+	c #369967",
"}+	c #1C4B41",
"|+	c #267657",
"1+	c #44A464",
"2+	c #52AF5D",
"3+	c #2E966B",
"4+	c #267255",
"5+	c #16182D",
"6+	c #E4D7A4",
"7+	c #192530",
"8+	c #2D8F66",
"9+	c #3A9D67",
"0+	c #319568",
"a+	c #60B759",
"b+	c #56B35B",
"c+	c #2D9369",
"d+	c #183034",
"e+	c #2D8D64",
"f+	c #349768",
"g+	c #2F956A",
"h+	c #B3B3B5",
"i+	c #3B3945",
"j+	c #287A59",
"k+	c #329869",
"l+	c #56B25C",
"m+	c #54B15C",
"n+	c #48A762",
"o+	c #287D5B",
"p+	c #48904A",
"q+	c #369A68",
"r+	c #2A8362",
"s+	c #161B2F",
"t+	c #246B50",
"u+	c #2F986B",
"v+	c #2F976B",
"w+	c #287E5B",
"x+	c #EADCA8",
"y+	c #4F5158",
"z+	c #54555C",
"A+	c #182D33",
"B+	c #2A825E",
"C+	c #2F976A",
"D+	c #379B68",
"E+	c #2C8B64",
"F+	c #1C3332",
"G+	c #56AE56",
"H+	c #4BA961",
"I+	c #4EAC5F",
"J+	c #2E946B",
"K+	c #182E34",
"L+	c #1F5545",
"M+	c #2F9569",
"N+	c #277959",
"O+	c #E7E7E8",
"P+	c #E8DBA6",
"Q+	c #246B51",
"R+	c #2C8C64",
"S+	c #2E9368",
"T+	c #379A68",
"U+	c #3B9862",
"V+	c #172831",
"W+	c #286C66",
"X+	c #3B8969",
"Y+	c #2E966A",
"Z+	c #349969",
"`+	c #266E69",
" @	c #19313B",
".@	c #172530",
"+@	c #65666B",
"@@	c #16172D",
"#@	c #1B423B",
"$@	c #277757",
"%@	c #4CAB61",
"&@	c #2F9368",
"*@	c #193A38",
"=@	c #172937",
"-@	c #418F63",
";@	c #5AB759",
">@	c #56AF5C",
",@	c #469965",
"'@	c #277C6E",
")@	c #4DAA60",
"!@	c #2E956A",
"~@	c #2D956A",
"{@	c #49A762",
"]@	c #50AD5F",
"^@	c #27736F",
"/@	c #277270",
"(@	c #15132A",
"_@	c #E1C08B",
":@	c #5A564B",
"<@	c #16202F",
"[@	c #1D4E41",
"}@	c #1C4D41",
"|@	c #1C493F",
"1@	c #161A2E",
"2@	c #16192D",
"3@	c #246767",
"4@	c #55AF5C",
"5@	c #327E6C",
"6@	c #4AA761",
"7@	c #4CAA60",
"8@	c #31976A",
"9@	c #3C9E66",
"0@	c #389B68",
"a@	c #2D8D6B",
"b@	c #27716F",
"c@	c #1E4F52",
"d@	c #E1BF8B",
"e@	c #EDDFA9",
"f@	c #484641",
"g@	c #3B3D46",
"h@	c #262832",
"i@	c #21595B",
"j@	c #3F8F68",
"k@	c #3E8D68",
"l@	c #297B6E",
"m@	c #4BAA61",
"n@	c #4EAB60",
"o@	c #30966A",
"p@	c #297C6E",
"q@	c #205859",
"r@	c #322E34",
"s@	c #A79665",
"t@	c #ACADAE",
"u@	c #1E4D50",
"v@	c #246F71",
"w@	c #47A563",
"x@	c #256E6F",
"y@	c #28776E",
"z@	c #46A663",
"A@	c #319769",
"B@	c #2C8A6C",
"C@	c #246666",
"D@	c #192131",
"E@	c #1E212F",
"F@	c #18303A",
"G@	c #27706E",
"H@	c #429366",
"I@	c #297D6E",
"J@	c #2B866C",
"K@	c #2E936B",
"L@	c #2A7D6E",
"M@	c #55B25C",
"N@	c #172634",
"O@	c #737458",
"P@	c #8D8E68",
"Q@	c #989662",
"R@	c #C3A67A",
"S@	c #161A2D",
"T@	c #1D474C",
"U@	c #2B856C",
"V@	c #3B9D67",
"W@	c #2C876C",
"X@	c #256A69",
"Y@	c #172433",
"Z@	c #878865",
"`@	c #232431",
" #	c #1A3B42",
".#	c #2B846D",
"+#	c #1A3840",
"@#	c #7D7E5E",
"##	c #266E6D",
"$#	c #28766E",
"%#	c #2E946A",
"&#	c #30976A",
"*#	c #28746F",
"=#	c #1B3D44",
"-#	c #1A3A42",
";#	c #277170",
">#	c #2A816D",
",#	c #359969",
"'#	c #28786E",
")#	c #2E936A",
"!#	c #2E926B",
"~#	c #27736E",
"{#	c #15152B",
"]#	c #266D6B",
"^#	c #4DAB60",
"/#	c #29796E",
"(#	c #1C4248",
"_#	c #304337",
":#	c #79A763",
"<#	c #162030",
"[#	c #28756F",
"}#	c #52AF5E",
"|#	c #50AD5E",
"1#	c #4EAB5F",
"2#	c #36836B",
"3#	c #27706F",
"4#	c #2F946A",
"5#	c #49A862",
"6#	c #27716E",
"7#	c #1A3740",
"8#	c #192532",
"9#	c #9AB84E",
"0#	c #739F5F",
"a#	c #4C6A46",
"b#	c #21585A",
"c#	c #42A264",
"d#	c #317D6C",
"e#	c #359968",
"f#	c #2D8C6C",
"g#	c #1B4047",
"h#	c #266D6C",
"i#	c #215B5C",
"j#	c #15162B",
"k#	c #5F7238",
"l#	c #64773A",
"m#	c #7F9744",
"n#	c #6B803E",
"o#	c #222F32",
"p#	c #162131",
"q#	c #266C6B",
"r#	c #297A6E",
"s#	c #2D8E6B",
"t#	c #3D9E66",
"u#	c #4AA861",
"v#	c #409067",
"w#	c #359869",
"x#	c #287C60",
"y#	c #236363",
"z#	c #236262",
"A#	c #4F5E34",
"B#	c #86A147",
"C#	c #87A147",
"D#	c #2E3831",
"E#	c #182936",
"F#	c #1C4449",
"G#	c #276F6D",
"H#	c #2E916B",
"I#	c #29776E",
"J#	c #4FA660",
"K#	c #3C9E67",
"L#	c #4EA65A",
"M#	c #41A165",
"N#	c #2E796D",
"O#	c #2F7B6D",
"P#	c #1A3938",
"Q#	c #21595A",
"R#	c #1B3E44",
"S#	c #3E573E",
"T#	c #172734",
"U#	c #1F5355",
"V#	c #449666",
"W#	c #47A763",
"X#	c #458B47",
"Y#	c #257456",
"Z#	c #47A663",
"`#	c #54AD5D",
" $	c #2A756E",
".$	c #43A064",
"+$	c #5CB858",
"@$	c #246E52",
"#$	c #150D2A",
"$$	c #205759",
"%$	c #1F5254",
"&$	c #5B7F4F",
"*$	c #69673D",
"=$	c #172131",
"-$	c #193841",
";$	c #57AF57",
">$	c #3B7742",
",$	c #1C4950",
"'$	c #32906A",
")$	c #389C68",
"!$	c #1F5645",
"~$	c #1A212E",
"{$	c #648B55",
"]$	c #8E8B49",
"^$	c #246665",
"/$	c #19333D",
"($	c #15192F",
"_$	c #3E7D44",
":$	c #58B157",
"<$	c #1E3734",
"[$	c #1B3C42",
"}$	c #2B856D",
"|$	c #4FAD5F",
"1$	c #293532",
"2$	c #77A562",
"3$	c #737140",
"4$	c #6E6C3F",
"5$	c #16172C",
"6$	c #458B49",
"7$	c #5BB75A",
"8$	c #4A964D",
"9$	c #33663C",
"0$	c #2D8F6B",
"a$	c #449566",
"b$	c #58B35A",
"c$	c #58B55A",
"d$	c #2C956B",
"e$	c #2A7F6E",
"f$	c #1D464B",
"g$	c #425D41",
"h$	c #A9A553",
"i$	c #15192E",
"j$	c #4C9B4F",
"k$	c #59B358",
"l$	c #59B458",
"m$	c #2F5E3B",
"n$	c #1D3231",
"o$	c #1D484D",
"p$	c #2D8B6C",
"q$	c #3EA066",
"r$	c #34806C",
"s$	c #3FA065",
"t$	c #42A364",
"u$	c #2A806D",
"v$	c #266F6D",
"w$	c #172533",
"x$	c #628954",
"y$	c #333E31",
"z$	c #171C2E",
"A$	c #1A363F",
"B$	c #2D906B",
"C$	c #27726F",
"D$	c #1C4147",
"E$	c #5C6E3A",
"F$	c #6E843F",
"G$	c #313C31",
"H$	c #16192C",
"I$	c #256B6A",
"J$	c #2C8B6C",
"K$	c #246E70",
"L$	c #276F6E",
"M$	c #19323C",
"N$	c #4B6959",
"O$	c #90AC4A",
"P$	c #1C454A",
"Q$	c #48A662",
"R$	c #45A463",
"S$	c #31856C",
"T$	c #3A9C67",
"U$	c #95B14C",
"V$	c #1B222E",
"W$	c #1A373F",
"X$	c #2A7E6E",
"Y$	c #287D6E",
"Z$	c #409F65",
"`$	c #41A265",
" %	c #2C886C",
".%	c #2A8560",
"+%	c #236161",
"@%	c #22232E",
"#%	c #638C71",
"$%	c #3B3C33",
"%%	c #161F30",
"&%	c #29816D",
"*%	c #30986B",
"=%	c #182F34",
"-%	c #2E9267",
";%	c #2A7E6D",
">%	c #236060",
",%	c #3C473F",
"'%	c #68663D",
")%	c #246766",
"!%	c #329769",
"~%	c #1A3D39",
"{%	c #2D8E66",
"]%	c #2B836D",
"^%	c #205255",
"/%	c #181E2E",
"(%	c #B1AD56",
"_%	c #8B8848",
":%	c #16182C",
"<%	c #205557",
"[%	c #53AF5D",
"}%	c #2E906B",
"|%	c #23694F",
"1%	c #14002A",
"2%	c #256F59",
"3%	c #B0AB55",
"4%	c #344032",
"5%	c #181F2E",
"6%	c #1D484C",
"7%	c #35896B",
"8%	c #1E5343",
"9%	c #1B4046",
"0%	c #1B3F45",
"a%	c #182D39",
"b%	c #333431",
"c%	c #BBB659",
"d%	c #AEA954",
"e%	c #5B6D3A",
"f%	c #246564",
"g%	c #256E70",
"h%	c #59B45A",
"i%	c #2D8E6A",
"j%	c #27726E",
"k%	c #1F5053",
"l%	c #161B2D",
"m%	c #172332",
"n%	c #23272F",
"o%	c #7E7C44",
"p%	c #BDB85A",
"q%	c #27282E",
"r%	c #19353E",
"s%	c #256969",
"t%	c #2E9268",
"u%	c #37846B",
"v%	c #2C896C",
"w%	c #2D9066",
"x%	c #205755",
"y%	c #246566",
"z%	c #2C866D",
"A%	c #1C4348",
"B%	c #425034",
"C%	c #516237",
"D%	c #506137",
"E%	c #92AF4B",
"                                            . . . . . . . . . . + . . . . . .     . . . . .   . . . . . . . . . . . .           ",
". . .                   . . . . . . . . . . . . . . . . . . . . @ . . . . . . . . . . . . .   . . . . . . . . . . . .           ",
". . . . . . . . . . . . . . . # # # # # # . . . . . . . . . . . $ . . . . . . . . . . . . . . . . . . . . . . . . . . . . . . . ",
". . . . . . . . . . . . . # # # # # # # # # . # # # # . . . . % &       . . . . . . . . . . . . . . . . . . . . . . . . . . . . ",
". . . . . . . . . . . # # # # # # # # # # # # # # # # # . . . * = -       . . . . . . . . . . # # # . . . . . . . . . . . . . . ",
". . . . . . . . . . # # # # # # # # # # # # # # # # # #       ; > ,               # # # . . # # # # # . . . . . . . . . . . . . ",
". . . . . . . . # # # # # # . . . . . # # # # # # # # # # # # ' ) !             # # # # # # # . . # # # . . . . . . # # # . . . ",
". # # . . . # # # # # # # . . . . . . . # # # . . . # # # # ~ { ] ^     # # # # # . . # # # . . . . # # # . . . . # # # # # . . ",
"# # # # . . . . . . . . . . . . . . . . # # . . . . . . . . / ( _ : . . . . . . . . . . . . . . . . . . . . . . # # # # # # # # ",
"# # # # # # # . . . . . . . . . . . . . . . . . . . . . . < [ } } | 1 . . . . . . # # . . . . . # # # # . . . . # # # # # # # # ",
"# # # . . . . . . . . . . . . . . . . . . . . . . . 2 2 2 3 4 5 } 6 7 2 2 2 . # # # # # . # # # # # # # # . . # # # # . . . # # ",
". . . . . . . . . . . 2 2 2 2 2 . . 2 2 2 . . .         2 8 9 } } 0 a b 2 2 2 # # # # # # # # # # # # # # # # # # # . . . . . . ",
". . . . . . . . . . 2 2 2 2 2 2 2 2 2 2 2 2 .           c d 5 } } e f g     2 2 # # # # # # # # # # # # # # # # # # . . . . . . ",
". . . . . . . . 2 2 2         2 2 2     2 2             h i 5 } } e j k l     2 2     # # # . . # # . . . # # # # . . . . . . . ",
". . . . . 2 2 2 2                                       m n 5 } } } o p q               # # . . . . . . . . # # # # # # # # # # ",
"# # #   2 2                                       > > > r s } } } } t u v >                 . . . . . . . . # # # # # # # # # # ",
"                          # # #               > > > > w x y } } } } z A v > > >                 . . . . . . # # # # #           ",
"      . . . . . .     # # # # # # #   > > > > > > > B C D } } } } } 5 E F > > > > > > >       . . . . . . # #                   ",
". . . . . . . . . . . . . . . # > > > > > > > > > G H I J } K } } L } M N > > > > > > > > > . . . . . . . . . . . . . . . . . . ",
". . . . . . . . . . . . . . . > > > > > > > > > G G O P Q } R 5 } S z T U V > > > > > > > > # # . . . . . . . . . . . . . . . . ",
". .         . . . . . . . . . > > > W G G G W W G X Y Z ` e  .` ..+.@.} #.$.%.&.G G G > > > > # . . . . . . . . . . . . . . . . ",
".             . . . . . . . > > > W G G G G G W G *.=.-.` @.;.` >.,.'.5 ).!.~.&.G G G G > > > # . . . . . . . . . . . . . . . . ",
"                    . . . . > > W W G G G G G G G {.].^.T /.;.(._.:.<.[.}.|.1.2.G G G G G > > > . . . . . . . . . . . . .       ",
"      . . .           . > > > > &.W G G G G G G 3.4.5.z 6.7.8.9.J 0.9.9.(.a.b.c.G G G G W > > >   . . . . . . . . . . . . . .   ",
".   . . . . .           > > > > &.&.W G G G G G d.e.f.>.g.h.i.j.e 0.k.9.g.l.m.n.o.G G G W W > > > > > > . . . . . . . . . . . . ",
". . . . . . . . . . . > > > > G G &.&.W W G G p.q.r.s.,.9.9.9.t.u.v.w.x.9.9.y.z.A.G G W &.&.&.> > > > > > . . . . . . . . . . . ",
". . . . . . . . . . . > > G G G G G &.&.G G G B.C.D.9.9.9.9.,.E.v.9.F.G.9.9.H.I.J.K.W W &.&.&.> > > > > >           # # # . . . ",
"# # . . . . . . . . > > > G G G G G G &.G G G L.M.9.9.9.9.9.9.N.O.P.Q.R.S.9.9.y.T.U.W W W &.> > > > > > > # # # # # # # # # # # ",
"# # # # # # # # # # > > > G G G G G G &.G G V.W.X.9.9.9.Y.Z.9.g...`. +.+++9.@+#+$+%+&+&.&.*+> > > > > # # # # # # # # # # # # # ",
"# # # # # # # . . . > > > G G G G G W W G G =+-+ +9.9.l.;+Z.9.P.>+,.9.,+'+)+!+9.~+T.{+> > > > > > > > # # # # # # # # # # # # # ",
"# . . . . . . . . . > > > W G G G W W W W ]+^+/+9.9.9.(+_+9.9.:+<+9.9.9.[+}+|+1+2+3+4+5+> > > > > > > . . # # # # # # # # # # # ",
". . . . . . . . . . . > > > W W W G G G 6+7+8+Q.9.9.9+0+@+9.9.a+9.9.9.9.b+c+d+e+f+$+g+-+d+> > > > G G > . . # . . . # # . . . . ",
". . . . . . . . . . . > > > > W W G G h+i+j+k+l+m+n+o+p+9.9.9.9.9.9.9.9.@+q+r+s+t+u+$+v+w+> > > > G > > . . . . . . . . . . . . ",
"      . . . . . . . . > > > > &.x+y+z+A+B+C+D+9.q+E+F+G+9.9.9.H+9.9.I+9.9.,+J+K+5+L+M+$+N+> O+G > G G > > . . . . . . . . .     ",
"      . . . . . 2 2 2 > > > > &.P+Q+R+S+$+T+Q.U+t+V+W+ +9.D.X+C+@+,.Y+l+9.9.Z+`+ @v J.J..@+@> G > > > > > . . . .               ",
"    . . . . . 2 2 2 2 2 > > > &.P+@@#@$@u+%@&@*@@@=@-@;@>@,@'@~+)@9.!@~@{@l.]@^@/@(@> > > > > > > > > > > .                     ",
". . . 2 2 . 2 2 2     2 > > W &._@:@v <@[@}@|@1@2@3@4@9.5@^@6@7@8@m+!@$+$+9@0@a@b@c@> > > > > > > > > > > .                     ",
". . 2 2 2 2 2 2       > > > &.&.&.d@e@f@g@h@> v i@j@9.k@b@l@m@9.8@n@!@$+$+n+k.o@p@q@r@> > > > > > > > > > . . . . . . . . . . . ",
". . 2 2     2 2       > > > &.s@&.&.&.W G t@v u@v@#+w@x@y@$+!@l.z@!@$+$+$+!@n+A@B@C@D@> > > > > > > > > > . . . . . . . . . . . ",
"2 2 2                 > > > > s@&.&.&.s@&.E@F@G@H@D+I@J@K@L@$+9.M@$+$+$+$+$+$+$+$+/@N@O@P@> > > > > > >     . . . . . . . .     ",
"                . . .   > > > > Q@Q@Q@Q@R@S@T@b@C+$+$+$+U@L@$+!@x.V@$+$+$+$+$+$+$+W@X@Y@P@> > > > > > . . . . . . . . .         ",
"              . . . . .   > > > > > P@Z@`@ #b@.#$+$+$+C+y@g+$+Y+n+V@$+$+$+$+$+$+$+W@b@+#> > > > . . . . . . . . . .             ",
"          . . . . . . .       > > > > @#S@##$#g+$+G.D+$+%#$+$+$+&#&#$+$+p@$+$+$+$+g+*#=#> > > . . . . . . . . . .       . . .   ",
"      . . . . . . . . . . .   > > > > > -#;#>#$+D+Z.,#$+$+$+$+9+$+$+$+$+'#)#$+$+$+$+!#~#{#> > . . . . . . . .         . . . . . ",
". . . . . . . . . . . . . . . # > > > Y@]#l@$+$+M@Q.$+$+$+$+$+^#$+$+$+$+$#/#$+$+Y+$+$+'#(#v _## # . . . . . . . . . . . . . . . ",
". . . . . . . . . # # # # # # # :#> <#X@[#g+o@}#9.|#$+$+$+$+;+1#$+$+$+9@2#3#4#o@|#5#$+%#6#=#7#8#< 9#. . . . . . . . . . . . . . ",
". . . . . . . . . . . . # # # 0#a# #b#>#C+~@z@9.,+!@$+$+$+$+k. +c#$+V@9@x.d#/#e#9.k.o@$+f#g#h#i#j#k#l#m#. . . . . # # # . . . . ",
". . . . . . . . . . . . . . n#o#p#q#r#%#s#k.9.9.,#H+$+$+t#;+|#9.M@$+u#Q.9.v#3#w#9. +8@$+$+x#(#/@y#z#z#A#. . . . # # # # # . . . ",
". . . . . . . . .     B#C#D#E#F#G#3#H#I#J#9.x.K#H+L#$+!@9.Z+|#9.9.M#9.9.9.D.N#O#x.+.D+&#u#$+P#Q#b@G@R#S#. . . # # # # # # . . . ",
". . . . . . . .       > T#U#z#/@b@b@;#V# +9.Z.W#X#Y#$+~+9.Z#]@9.9.+.9.9.9.9.`# $.$9.,+&#+$Y+@$#$$$%$S@&$# # # # # # # # # . . . ",
". . . . . .           *$=$ #b@b@G@b@-$;$9.9.x.>$,$$+$+)@9.9.Z.9.9.9.9.9.9.9. +'$a@9.@+)$n@7@g+!$S@~${$# # # # # # # # # # # # # ",
"# # # # #             ]$> > > ^$/$($_$9.9.:$<$[$}$$+o@|$9.9.9.9.9.,.1+9.9.9.9.b+!@c#9.@+~@Q.&#!#1$2$# # # # # # # # # # # # # # ",
"# # # . . . . .         3$4$> 5$v 6$7$7$8$9$i@/@0$$+8@l.9.9.^#9.9.9.9@a$b$9.9.c$D+!@y.x.d$F.k+e$f$g$# # # # # # # # # # # # # # ",
". . . . . . . . .           h$i$j$k$l$m$n$o$b@p$$+$+k.9.9.9.q$x.9.9.n+B@r$9.9.9.s$$+&#m+t$$+$+u$v$w$x$# # # # # # # # # # # # # ",
". . . . .                   . y$z$v v S@A$;#y@$+$+k+#+9.9.]@Y+!@x.9. +B$C$V#9.9.9.D+$+$+$+$+$+$+;#D$E$. . . . . 2 2 2 2 # # # . ",
". . .                       . . F$G$H$q@I$l@J$$+!@]@9. +1+&#$+$+F.9.9.F.$#K$l.9.9.M@&#$+$+$+$+$+u$L$M$N$2 . . 2 2 2 2 2 2 2 # . ",
". .                       . . . O$w P$b@^@g+$+$+Q$9.Z.R$J$%#$+$+o@2+9.2+!#b@S$T$9. +Z+$+S+$+$+$+g+$#h#<#3 2 2 2       2 2 2 2 . ",
"      . . . . .           . . U$V$W$;#X$0$$+A@(+l.Y.Z+l@Y$Z$`$9+$+$+M@,+8@ %r#J$n+Y.H+$+N+.%$+0$$+%#*#+%@%#%2           2 2 2 2 ",
"  . . . . . . . .           . $%%%I$/#g+$+Y+|# +Y.Y+>#&%|$9.9.7@$+$+5#9.]@Y+)#y@Y+!@Y+$+*%=%-%;% %$+s#;#>%,%]$                  ",
"  . . . . . . . . . .       '%<#)%^@g+$+$+$+;+;+8@$+4#!%9.9.9.9.8@$+&#b+,.(+$+4#$+$+$+$+$+B+~%{%[#*#f#]%b@##^%/%(%              ",
"  .       . . . . . . .   _%:%<%b@s#$+C+$+$+$+$+C+$+(+[%9.9.9.,+&#$+$+~@u#I+!@$+$+}%$+$+$+C+|%1%2%b@b@b@/@/@C@v 3%              ",
"            . . . . . . 4%5%6%b@B@$+0$p@s#$+$+$+l@7%x.9.9.9.9.H+$+$+$+$+$+G.n+$+$+K@p@!#$+$+g+8%5$R#3@/@9%0%a%b%c%              ",
"            . . .   d%e%%%f%L$0$H#>#C$r#$+$+g+H#g%h%9.9.9.9.9.$+8@)$$+$+$+$+&#$+$+$+i%j%H#$+4#k%l%> =$m%> n%o%c%. .             ",
"            . .   p%q%r%$$C$b@3#3#b@s%t%$+C+.#3#u%9.9.9.9.9.Y.Y+0@l.!@$+$+$+$+v%$+$+w%x%y%z%}$/@A%> B%C%D%E%  . . . .           "};
