/* XPM */
static char * wall_on_xpm[] = {
"64 64 657 2",
"  	c None",
". 	c #161C2E",
"+ 	c #172131",
"@ 	c #205658",
"# 	c #256B6A",
"$ 	c #27716F",
"% 	c #27706E",
"& 	c #205A4C",
"* 	c #2F9569",
"= 	c #2B836D",
"- 	c #29796E",
"; 	c #29736F",
"> 	c #57B25B",
", 	c #5AB659",
"' 	c #3FA066",
") 	c #2E956A",
"! 	c #54B15C",
"~ 	c #42A264",
"{ 	c #2F966A",
"] 	c #28756F",
"^ 	c #2D8F6B",
"/ 	c #2C8A63",
"( 	c #182C38",
"_ 	c #1E4C50",
": 	c #266F6D",
"< 	c #182B35",
"[ 	c #161F2F",
"} 	c #161A2D",
"| 	c #236161",
"1 	c #266C6B",
"2 	c #246665",
"3 	c #19323C",
"4 	c #182E3B",
"5 	c #2D8D6B",
"6 	c #53AC5D",
"7 	c #51AE5E",
"8 	c #349969",
"9 	c #58B45A",
"0 	c #389C68",
"a 	c #2E916B",
"b 	c #2E936A",
"c 	c #28746F",
"d 	c #2A806D",
"e 	c #267556",
"f 	c #1B443D",
"g 	c #172534",
"h 	c #2A7D6E",
"i 	c #2F956A",
"j 	c #22654D",
"k 	c #15122C",
"l 	c #161E2F",
"m 	c #1F5053",
"n 	c #1B3D44",
"o 	c #15162B",
"p 	c #161B2D",
"q 	c #256868",
"r 	c #27706F",
"s 	c #256F6F",
"t 	c #4A9F63",
"u 	c #52AF5D",
"v 	c #5BB759",
"w 	c #339869",
"x 	c #45A563",
"y 	c #55B25C",
"z 	c #2E966A",
"A 	c #2F976A",
"B 	c #297D6E",
"C 	c #2B866C",
"D 	c #2D8F66",
"E 	c #267456",
"F 	c #1C483C",
"G 	c #1E4E52",
"H 	c #2B846C",
"I 	c #30986B",
"J 	c #267657",
"K 	c #16202F",
"L 	c #1A3A42",
"M 	c #256B69",
"N 	c #27726F",
"O 	c #2E906B",
"P 	c #3F8F68",
"Q 	c #53AF5D",
"R 	c #379A68",
"S 	c #4CAA60",
"T 	c #50AD5F",
"U 	c #30966A",
"V 	c #46A563",
"W 	c #379B68",
"X 	c #2C886C",
"Y 	c #28766E",
"Z 	c #27736F",
"` 	c #28786E",
" .	c #2F9369",
"..	c #294C5C",
"+.	c #23394D",
"@.	c #1A353D",
"#.	c #1B403A",
"$.	c #1B403B",
"%.	c #161D2E",
"&.	c #19303A",
"*.	c #297B6E",
"=.	c #2D8C6C",
"-.	c #34816B",
";.	c #56B25B",
">.	c #2D8E6B",
",.	c #2C6A62",
"'.	c #2A485E",
").	c #29455B",
"!.	c #182133",
"~.	c #1F5154",
"{.	c #2A7F6D",
"].	c #2A756E",
"^.	c #57B15B",
"/.	c #43A364",
"(.	c #48A662",
"_.	c #4EAB60",
":.	c #359969",
"<.	c #2E926B",
"[.	c #2A7E6D",
"}.	c #2E8967",
"|.	c #2A475E",
"1.	c #1C2B3D",
"2.	c #172835",
"3.	c #2C8D6C",
"4.	c #54AD5D",
"5.	c #58B55A",
"6.	c #59B559",
"7.	c #2A7E6E",
"8.	c #2C876C",
"9.	c #2A4D5E",
"0.	c #29465C",
"a.	c #171E30",
"b.	c #16172B",
"c.	c #1D474B",
"d.	c #256968",
"e.	c #2B846D",
"f.	c #3B9D67",
"g.	c #4FAC5F",
"h.	c #2E936B",
"i.	c #276F6F",
"j.	c #2D8066",
"k.	c #253E53",
"l.	c #16192C",
"m.	c #1B3E45",
"n.	c #49A762",
"o.	c #2F9169",
"p.	c #2A4C5E",
"q.	c #286168",
"r.	c #28676B",
"s.	c #182E39",
"t.	c #182936",
"u.	c #19313B",
"v.	c #225E5F",
"w.	c #276F6E",
"x.	c #2E946A",
"y.	c #3EA066",
"z.	c #3B9E67",
"A.	c #4EAB5F",
"B.	c #49A862",
"C.	c #2E9167",
"D.	c #2E8E68",
"E.	c #2A5261",
"F.	c #266D6C",
"G.	c #172332",
"H.	c #1C454A",
"I.	c #287371",
"J.	c #277270",
"K.	c #2D8B6C",
"L.	c #2C8A6C",
"M.	c #3D9E66",
"N.	c #59B55A",
"O.	c #2D956A",
"P.	c #2F976B",
"Q.	c #1C453D",
"R.	c #2C896C",
"S.	c #225F60",
"T.	c #1C4348",
"U.	c #1B3D43",
"V.	c #28746E",
"W.	c #2A816D",
"X.	c #297A6E",
"Y.	c #5BB758",
"Z.	c #31976A",
"`.	c #246D51",
" +	c #1F5548",
".+	c #266E6D",
"++	c #182A36",
"@+	c #172231",
"#+	c #161F30",
"$+	c #256867",
"%+	c #2C8B6C",
"&+	c #47A662",
"*+	c #3E9F66",
"=+	c #47A663",
"-+	c #40A165",
";+	c #1D4A3F",
">+	c #15152A",
",+	c #1D494D",
"'+	c #1F5254",
")+	c #369A68",
"!+	c #389B68",
"~+	c #329769",
"{+	c #2B836B",
"]+	c #182D39",
"^+	c #151028",
"/+	c #1F5356",
"(+	c #205557",
"_+	c #277370",
":+	c #205759",
"<+	c #19353E",
"[+	c #274156",
"}+	c #27676A",
"|+	c #3D9F66",
"1+	c #57B35B",
"2+	c #2E9268",
"3+	c #297F5C",
"4+	c #256A69",
"5+	c #161B2E",
"6+	c #1A3840",
"7+	c #1A2638",
"8+	c #22374B",
"9+	c #295161",
"0+	c #4FAD5F",
"a+	c #54B05D",
"b+	c #4BAA61",
"c+	c #2E9368",
"d+	c #182F34",
"e+	c #2D8D64",
"f+	c #277170",
"g+	c #1B3F45",
"h+	c #21374B",
"i+	c #284459",
"j+	c #2A4B5F",
"k+	c #276D6E",
"l+	c #56B25C",
"m+	c #56B35B",
"n+	c #55B15C",
"o+	c #50AD5E",
"p+	c #319769",
"q+	c #5BB659",
"r+	c #2A845E",
"s+	c #1A3D38",
"t+	c #21595B",
"u+	c #1D2D3F",
"v+	c #2A4B5E",
"w+	c #2B5A60",
"x+	c #399C68",
"y+	c #329869",
"z+	c #4DAA60",
"A+	c #4EAC5F",
"B+	c #2B826D",
"C+	c #21585A",
"D+	c #1B3D3C",
"E+	c #2A845F",
"F+	c #2E9168",
"G+	c #172433",
"H+	c #1D3242",
"I+	c #253D52",
"J+	c #2A465E",
"K+	c #2B5D60",
"L+	c #2D7B65",
"M+	c #30976A",
"N+	c #44A464",
"O+	c #286469",
"P+	c #29465B",
"Q+	c #1D2C40",
"R+	c #15172C",
"S+	c #236262",
"T+	c #28686B",
"U+	c #28656A",
"V+	c #2A6D69",
"W+	c #2D8166",
"X+	c #2E9069",
"Y+	c #28776E",
"Z+	c #48A762",
"`+	c #2E8B68",
" @	c #2A485F",
".@	c #1E3042",
"+@	c #266D6B",
"@@	c #295C65",
"#@	c #45A463",
"$@	c #2E8D68",
"%@	c #28686A",
"&@	c #2A475D",
"*@	c #161D2F",
"=@	c #1C4147",
"-@	c #225D5D",
";@	c #171F31",
">@	c #275D64",
",@	c #2A435D",
"'@	c #2A505F",
")@	c #295363",
"!@	c #297C6E",
"~@	c #2A495F",
"{@	c #172432",
"]@	c #1C4449",
"^@	c #236363",
"/@	c #1C4248",
"(@	c #1E2D41",
"_@	c #264156",
":@	c #2A495E",
"<@	c #2B7A69",
"[@	c #2E8968",
"}@	c #233A4E",
"|@	c #172533",
"1@	c #192537",
"2@	c #264055",
"3@	c #2A4A5F",
"4@	c #4AA961",
"5@	c #2E8F68",
"6@	c #2D7E65",
"7@	c #2A4C60",
"8@	c #2F946A",
"9@	c #29736C",
"0@	c #274358",
"a@	c #171D2F",
"b@	c #151A2C",
"c@	c #203548",
"d@	c #2C6F63",
"e@	c #4AA861",
"f@	c #2D8266",
"g@	c #2A405D",
"h@	c #2E8767",
"i@	c #2A445D",
"j@	c #295D66",
"k@	c #57B45B",
"l@	c #2B5860",
"m@	c #2B545F",
"n@	c #243C51",
"o@	c #46A663",
"p@	c #53B05D",
"q@	c #2B6361",
"r@	c #2A4D5F",
"s@	c #286A6C",
"t@	c #2B5760",
"u@	c #2B5660",
"v@	c #2A766B",
"w@	c #274257",
"x@	c #1A2537",
"y@	c #1A273A",
"z@	c #29475D",
"A@	c #182132",
"B@	c #2A525F",
"C@	c #2C6B62",
"D@	c #2F9069",
"E@	c #2B5960",
"F@	c #2B6662",
"G@	c #22384C",
"H@	c #28455A",
"I@	c #1B283A",
"J@	c #243D51",
"K@	c #2A455E",
"L@	c #2E966B",
"M@	c #2D8E69",
"N@	c #2C7664",
"O@	c #2A4F5F",
"P@	c #2A5660",
"Q@	c #295261",
"R@	c #2A455D",
"S@	c #2C7364",
"T@	c #2E8F69",
"U@	c #286067",
"V@	c #21424F",
"W@	c #2A485D",
"X@	c #213649",
"Y@	c #2A4A5E",
"Z@	c #2C6762",
"`@	c #2B555F",
" #	c #2E8D69",
".#	c #276C6D",
"+#	c #295764",
"@#	c #246666",
"##	c #162131",
"$#	c #295362",
"%#	c #2A4C5F",
"&#	c #2B6561",
"*#	c #2E8867",
"=#	c #2C7063",
"-#	c #2E8868",
";#	c #2A826D",
">#	c #295262",
",#	c #1F3D4A",
"'#	c #28676A",
")#	c #1B3E44",
"!#	c #1A3B42",
"~#	c #16192D",
"{#	c #1C2C3E",
"]#	c #2A465D",
"^#	c #286368",
"/#	c #28696B",
"(#	c #295162",
"_#	c #286369",
":#	c #276E6E",
"<#	c #21384A",
"[#	c #286268",
"}#	c #215A5B",
"|#	c #215B5C",
"1#	c #182B37",
"2#	c #294A5E",
"3#	c #276D6D",
"4#	c #28666A",
"5#	c #2A5061",
"6#	c #192F3A",
"7#	c #264054",
"8#	c #246464",
"9#	c #295763",
"0#	c #295864",
"a#	c #295A65",
"b#	c #2A4F61",
"c#	c #276E6D",
"d#	c #172734",
"e#	c #236060",
"f#	c #295663",
"g#	c #286569",
"h#	c #236463",
"i#	c #1E2F42",
"j#	c #1D464C",
"k#	c #1D474C",
"l#	c #16182C",
"m#	c #1D484C",
"n#	c #192436",
"o#	c #295B65",
"p#	c #295462",
"q#	c #225C5D",
"r#	c #255F62",
"s#	c #2A4E60",
"t#	c #233B4F",
"u#	c #1F3245",
"v#	c #192235",
"w#	c #296067",
"x#	c #16172C",
"y#	c #1D2B3F",
"z#	c #1D2C3F",
"A#	c #245E60",
"B#	c #295563",
"C#	c #295F67",
"D#	c #286B6C",
"E#	c #1F5255",
"F#	c #28766D",
"G#	c #1A3E3B",
"H#	c #19343D",
"I#	c #286D6D",
"J#	c #295E66",
"K#	c #2A4F60",
"L#	c #286C6C",
"M#	c #286167",
"N#	c #1B2137",
"O#	c #2D8C6B",
"P#	c #2E936C",
"Q#	c #287470",
"R#	c #225D5E",
"S#	c #1C4349",
"T#	c #2A5161",
"U#	c #21374A",
"V#	c #1F4C51",
"W#	c #1E4D50",
"X#	c #182F3A",
"Y#	c #28445A",
"Z#	c #19333C",
"`#	c #236362",
" $	c #246867",
".$	c #1B4046",
"+$	c #2A4D60",
"@$	c #192336",
"#$	c #172634",
"$$	c #162030",
"%$	c #246766",
"&$	c #203347",
"*$	c #2A4B60",
"=$	c #203346",
"-$	c #203748",
";$	c #256666",
">$	c #246565",
",$	c #151B2D",
"'$	c #1E2E41",
")$	c #1C2A3C",
"!$	c #1C2A3D",
"~$	c #295463",
"{$	c #1E4B4F",
"]$	c #1E4C4F",
"^$	c #1F3246",
"/$	c #182335",
"($	c #203447",
"_$	c #182935",
":$	c #1F3144",
"<$	c #1E202F",
"[$	c #253E52",
"}$	c #253F53",
"|$	c #266C6A",
"1$	c #1D484D",
"2$	c #296268",
"3$	c #295964",
"4$	c #182234",
"5$	c #161E30",
"6$	c #514042",
"7$	c #1B2F43",
"8$	c #1E3043",
"9$	c #1D2D40",
"0$	c #253C51",
"a$	c #203246",
"b$	c #253F54",
"c$	c #252432",
"d$	c #574445",
"e$	c #10172B",
"f$	c #15182C",
"g$	c #1C2C3F",
"h$	c #276B6B",
"i$	c #276A6B",
"j$	c #21364A",
"k$	c #225C5E",
"l$	c #22384B",
"m$	c #282532",
"n$	c #594646",
"o$	c #43363B",
"p$	c #1D2B3E",
"q$	c #294D5F",
"r$	c #285361",
"s$	c #266E6C",
"t$	c #1E4E51",
"u$	c #28475B",
"v$	c #28495C",
"w$	c #192A38",
"x$	c #18303A",
"y$	c #294B5E",
"z$	c #276C6C",
"A$	c #23394E",
"B$	c #15182B",
"C$	c #1E4F52",
"D$	c #25505A",
"E$	c #141A2C",
"F$	c #151C2E",
"G$	c #5B4747",
"H$	c #141A2D",
"I$	c #205758",
"J$	c #151A2D",
"K$	c #1B293C",
"L$	c #1C293D",
"M$	c #1A3C43",
"N$	c #382F37",
"O$	c #1A1E2F",
"P$	c #524042",
"Q$	c #5A4646",
"R$	c #46383D",
"S$	c #1E4A4E",
"T$	c #162835",
"U$	c #182D38",
"V$	c #242331",
"W$	c #785A4D",
"X$	c #252330",
"Y$	c #795A4D",
"Z$	c #75574D",
"`$	c #322B35",
" %	c #141B2E",
".%	c #58433F",
"+%	c #08112A",
"@%	c #14162B",
"#%	c #3D323A",
"$%	c #664D48",
"%%	c #AB7D55",
"&%	c #352C34",
"*%	c #7F5E51",
"=%	c #946D54",
"-%	c #4A3B3F",
";%	c #594545",
">%	c #131B2D",
",%	c #131B2E",
"'%	c #7D5D4F",
")%	c #654C47",
"!%	c #0E192D",
"~%	c #7B5B4F",
"{%	c #846252",
"]%	c #B68455",
"^%	c #604945",
"/%	c #866353",
"(%	c #A17555",
"_%	c #584545",
":%	c #896550",
"<%	c #74574E",
"[%	c #826051",
"}%	c #A57855",
"|%	c #5E4845",
"1%	c #876453",
"2%	c #B68556",
"3%	c #2E2834",
"4%	c #42363B",
"5%	c #5C4541",
"6%	c #4F3E41",
"7%	c #433539",
"8%	c #AE7E55",
"9%	c #876454",
"0%	c #352D36",
"a%	c #71554C",
"b%	c #966E54",
"c%	c #372E35",
"d%	c #836152",
"e%	c #B78555",
"f%	c #3D3239",
"g%	c #554244",
"h%	c #6D524B",
"i%	c #54403E",
"j%	c #191D2F",
"k%	c #5C453B",
"l%	c #B28155",
"m%	c #5F4843",
"n%	c #362E37",
"o%	c #5B4646",
"p%	c #614B48",
"q%	c #634C49",
"r%	c #292532",
"s%	c #78594D",
"t%	c #A37754",
"u%	c #72554B",
"v%	c #554243",
"w%	c #76584D",
"x%	c #332B34",
"y%	c #1B1F30",
"z%	c #916B53",
"A%	c #A97B54",
"B%	c #4B3A3B",
"C%	c #342C36",
"D%	c #664E49",
"E%	c #76594E",
"F%	c #7C5C4F",
"G%	c #181D2E",
"H%	c #76584C",
"I%	c #534143",
"J%	c #09182D",
"K%	c #74564B",
"L%	c #6E5248",
"M%	c #2D2732",
"N%	c #74564C",
"O%	c #8A6653",
"P%	c #866352",
"Q%	c #00152C",
"R%	c #71544A",
"S%	c #1E2030",
"T%	c #886454",
"U%	c #836151",
"V%	c #73554A",
"W%	c #815F51",
"X%	c #43363A",
"Y%	c #03162C",
"Z%	c #06172D",
"`%	c #443538",
" &	c #202130",
".&	c #392F35",
"+&	c #5F4842",
"@&	c #856253",
"#&	c #362C34",
"$&	c #6A4F47",
"%&	c #7A5A4D",
"&&	c #322A33",
"*&	c #77584C",
"=&	c #694E46",
"-&	c #7C5C4E",
";&	c #1E1F2F",
">&	c #6B5047",
"                . + @ # $ $ $ $ % $ & * = - $ ; > , , , , , ' ) ! ~ { { { { { ] ^ { { / ( _ % $ : < [                           ",
"                } | $ $ $ $ 1 2 3 4 ^ 5 $ $ ; 6 , , , , , 7 { 8 9 0 { { { { a b c d { { e f g 2 h i j k                         ",
"                . l m m m m n o p q r $ - s t , , , , u v w { x y z { { { A ] { B r C { A D E F G H I J K .                     ",
"                  . . . . . . L M N B O N P , , , Q R S T U { V W { { { { { X Y Z $ ` { { {  ...+.@.#.$.%.                      ",
"                      . . . &.r *.=.{ =.-.v , , ;.{ { V z { { V { { { { { { >.$ $ ` $ a { { { ,.'.).!.. .                       ",
"                          . ~.$ {.A O ].^., 9 /.(._.:.z { { { z { { { { { { { X r <.N [.A { { }.|.'.1.. .                       ",
"                        . 2.% $ ^ { 3.4.5.S 8 8 6.7 U { { { { { { { { w { { { { 7.8.] $ 8.{ { A 9.'.0.a..                       ",
"                      b.c.d.r e.{ { { S f.z :.g.g.{ { { { { { { { { ) u { { { { z { h.{.i.{ { { j.'.|.k.l.                      ",
"                  . } m.$ $ [.{ { { { z { { { z z { { { { { { { { { ) u { { { { n.) { { B { { { o.p.q.r.| s.                    ",
"            . t.u.u.v.w.N Y { { { x.<.<.{ { { { e.d { { { { { X i b { y.z.{ { { A.B.{ { i { { { C.D.E.N $ F.G..                 ",
"            . H.I.J.$ ` C A A X X *.] = { { { K.i.{ { { { { { X L.- O M.N.O.{ { ) Q U { { { { P.Q.{ R.$ $ $ S.T.                ",
"            . } U.1 $ V.*.*.*.$ $ r a { { { h.Z W.{ { { { { { X ` X.C M., ' { { { Y.Z.{ { { { { `. +*.$ $ $ $ .+++%.            ",
"              . . + @+#+2 $+$+$ $ L.{ { { A ] - { { { { { { { %+$ $ $ M., &+V 6.*+=+6.-+{ { { { { ;+@+d.$ $ $ $ % H..           ",
"                  . . . >+,+'+i.= A z V B.z X A { )+8 { !+~+{ A Z $ X.)+9 , , , _.x , , O.{ { { { {+]+^+/+(+_+J.:+<+.           ",
"                    . . [+}+r O i { |+, V { { { { |+!+{ 1+8 { A Z N x.z ;., , , , 1+, , /.{ 2+3+A c 4+m 5+. 6+6+[ .             ",
"                    7+8+'.9+] { { )+, 7 z { { { :., !+S T { { { X.N A { 0+, , a+, , , , b+{ c+d+e+h.Z f+g+U.o                   ",
"                p h+i+'.j+k+^ { { l+x Z.{ { { z a+m+8 n+o+{ { { a $ A { p+q+! w y , , , Y.) { r+s+* =.h J.$ t+5+                ",
"            . a.u+'.'.v+w+h.{ x+n+&+{ { { { { 0+, 7 8 Y.8 { { { i - X { y+, g.{ T z+y., , A+{ B+C+D+E+F+: .+'+.                 ",
"        o G+H+I+|.J+K+L+{ { { { { a ^ { { { Z.y ;.{ l+n+{ { { { { = C { { V u M+{ N+)+5., 7 { {.O+P+Q+R+} } 5+                  ",
"      . v.S+T+U+V+W+X+A { { =.d d Y+B { { ) g., Z+{ ;.N+{  .`+{ { { O { { O.Y.w { z { ! , 7 { ^ O+'. @.@.                       ",
"      5+w.$ $ $ N O b b O c Z +@% @@B { { #@, 9 M+{ w Z.{ $@j.{ { { { { { { /.w {.= { 8 v 7 { { %@'.'.&@*@                      ",
"      . =@| J.$ $ r r $ f+J.-@;@>@,@8.{ M.v N.W { { { { A '@)@A { { { { { { { { !@r =.M+A.=+{ { %+j+'.~@.                       ",
"        p {@]@J.$ $ $ ^@/@/@(@_@:@<@{ y+9 , y.{ { { { { [@v+r.A )+!+{ { { { { { !@$ Z <.z z { { L.j+'.'.}@.                     ",
"          . . |@|@|@|@@+1@2@&@'.3@L.Z.m+1+4@{ { 5@!@{ { 6@7@$ = 0 -+{ { X+{ { { i r $ 5 8@{ { { { 9@|.'.0@a@                    ",
"          . p b@p . b@c@'.'.'.'.d@z !+e@0 z A f@g@8.{ h@i@j@$ B+8 k@O.{ l@D.{ { { r $ r 7.K.A { {  .m@'.'.7+.                   ",
"      . . *@n@[+}@. 8+'.'.'.'.'.$@o@p@u |+{ q@r@d@{ { d@s@$ $ c i p@/.{ t@u@{ { { = $ $ $ Z !@{ { { v@|.'.w@p .                 ",
". . . x@y@z@'.).A@1.'.'.'.'.B@C@Z.! S M+D@:@'.E@{ { O r $ $ $ r i A+&+{ t@'.F@{ { 8.$ $ $ $ $ N N N $ 7@'.'.G@p                 ",
"  p 8+H@~@~@}@I@J@~@'.'.'.K@}.A A L@M@N@l@|.O@o.{ b Z 7.d $ $ $ 8.z e@A P@Q@R@S@T@^ $ $ $ $ $ $ $ $ $ U@'.'.~@V@@+.             ",
"    7+2@W@I@a.X@'.'.'.Y@t@D.i 8@Z@w+`@'.'.C@D.{ i Y+c 8@Y $ $ N Y+{ 8 {  #k+.#7@t@{ =.$ $ r $ $ % $ $ w.:@'.'.+#@###. .         ",
"    . . . ;@u+'.|.$#%#&#*#*#=#'.'.'.'.'.|.*#-#>.r ;#{ ;#$ $ $ = *.R.{ { i c $ $ $ r R.$ N >#r $ ,#'#w.N $#|.'.$#$ $ )#!#~#} } . ",
"      . {#I+'.]#^#r /#|.K@K@|.'.'.'.'.'.'.(#_#r B { i Y+$ $ $ B+i Y A { { d $ $ $ $ r $ N ]#:#$ 4+<#+#'#w.[#]#|.@@$ J.: }#}#|#1#",
"  . . |@2#j+T+3#$ $ w.|.'.'.'.'.'.'.'.'.j+w.$ $ i { h.r $ $ $ N i !@] 8@{ 8@r $ $ $ $ $ $ 4#5#$ J.6#7#3@w.$ :#j+%#T+$ $ $ w.8##+",
"L H.H.$+$ $ $ $ $ % 9#$#'.'.'.'.'.|.0#a#N $ Z {.<.C $ $ s@$ $ r 5 { Y+` =.A r $ $ $ $ $ $ $ b#c#$ F.d#k.b#r $ $ $ N J.| e#c.} . ",
"!#_+J.$ $ $ $ $ $ $ J.$#0.0@'.|.:@4#N $ $ $ Z d ` r $ N f#$ $ $ Z {.` $ $ ^ = $ $ $ $ $ $ $ U+g#$ $ h#>+i#j#J.J.J.:+k#. l#~#    ",
". m#+@$ $ $ :#c#:#5#%#&@n#_@o#w.w.$ $ $ $ $ $ $ $ $ $ % +#$ $ $ $ N <.$ $ Z Z $ $ N p#$ $ $ $ r $ ] $ @ . %.t.t.t.##. .         ",
"  } |@q#r#O+s#'.'.'.t#u#v#'.|._#O+N N N $ $ $ $ s@$ $ o#9#$ $ $ $ $ r $ $ $ $ $ $ N '.w#$ $ $ r r <.c J.H.x#. . . . . .         ",
"    . ~#v#y#z#z#z#{#p l#A#'.'.|.'.B#B#0#$ $ c#B#C#$ r %#D#$ $ $ $ $ $ $ $ $ $ $ $ $ O+:@N $ Z >.r 8@O W.: | l#. . .             ",
"        . . . . . . 5+m /#|.'.'.'.'.'.'.3@3@3@'.[#$ 9+%#N Q@r $ $ $ w.$ $#N $ $ $ $ .#'.E#$ Z i i *.=.{ i !@F#G#H#|@. .         ",
"                . . T.I#j+J#J#o#'.'.'.'.'.'.'.'.N :#%#_#N %#'#$ $ r p#N K#L#$ $ $ $ $ M#N#J.$ {.O#A X A A A A P#Q#R#S#.         ",
"              . %.2..+:#D#$ O+T#'.'.'.'.'.U#'.O+$ s@3@w./#:@'#$ $ r ]#o#/#_#$ $ $ $ $ $ V#W#$ $ d { { L.X.X.X.X.N $ X#          ",
"        5+L L L W#% $ $#~@:@'.'.'.|.>#Q@Y#u#:@D#$ $ $ $ q.'.'#$ $ $#'.'.:@'.N $ $ $ $ $ $ Z#`#$ $ N R.^ L.$ $ $  $.$            ",
"        } C+J.J.J.$ $ J.3@|.|.+$q.U@J.w.@$u#b#N $ $ N 4#|.'.'#$ w.+$'.'.'.'.4#$ _#N $ $ $ 1 #$~.J.$ r r r J._+~.+ }             ",
"        . $$%$: $ $ $ $ .#.#.#3#$ % S+3 5+&$:@s@% % B#*$=$'.r.N 5#.@~@'.'.'.-$:#f#U@$ $ $ % ;$~#m : : : w.=@H#5+.               ",
"          . . l#^@% N N N N N J.>$H.. . ,$~@'.'.'.'.'.i+'$+$N :#3@)$~@%#:@ @!$'.q.+#$ $ $ B#~$8+l.} . . . . . .                 ",
"              . o m#{${${${${$]$|@} . . =$'.'.'.'.'.'.^$i#+$^#$#)./$~@B#O+|.u#($'.|.C#N $ N $ O+|#@ o l#l#5+.                   ",
"                  . . . . . . .       _$f#'.'.'.'.'.).a.:$'.3@'.[+<$}@p#$ 0#[$*@}$z@:@s#w.w.w.w.$ % 1 1 |$3                     ",
"                      . . . .       x#1$2$3$'.|.'.0.4$b@'.|.'.~@5$6$7$p#$ [#'.8$b@9$I+I+0$2@:@0#$ $ $ J.@ 5+                    ",
"                            . 5+l.o e#% $ N '#4#'.{#. a$4#O+'.b$c$d$e$%#:#$ j@&@[$:$b@f$b@g$~@s@$ $ $ e#p                       ",
"                            . 6+h$i$3#c#$ $ $ ~$j$. %.k$$ :#:@l$m$n$o$p$3#$ r .#+$q$r$s$t$*@n#u$v$w$2.G..                       ",
"                              x$y$'.7@j@$ J.z$A$B$t$C$J.$ $ D$E$F$6$G$H$I$J.$ $ N N $ $ .$. . J$,$. . .                         ",
"                                K$L$D#$ $ )#M$p p t$$ $ $ s$2.N$O$P$Q$R$*@S+$ $ $ $ $ S$l#                                      ",
"                                . . G.G.G.. . . . l T$4+d.U$V$W$X$Y$Z$Q$`$$$$$2 d.4+#$*@                                        ",
"                                    . . . . .   .  %.%+%@%#%$%%%&%*%=%-%;%>%. x#b.b.. .                                         ",
"                                              . O$,%'%)%!%~%{%]%^%/%(%`$_% %  . . .                                             ",
"                                            . F$G$X$:%<%O$[%/%}%|%1%2%3%;%4%,%                                                  ",
"                                             %5%6%7%8%9%0%a%1%b%c%d%e%f%g%h%i%                                                  ",
"                                              {%j%k%l%m%n%o%p%q%r%s%t%u%v%w%{%x%                                                ",
"                                              s%y%z%A%B%C%D%6$E%F%G%9%H%I%J%K%L%!%                                              ",
"                                              M%N%O%P%Q%R%[%S%T%U%&%V%W%X%  Y%Z%                                                ",
"                                                /%/%`% &/%.& %a%/%W%+&@&#&                                                      ",
"                                                $&%&&&*&=&F$    -&-&Z%                                                          ",
"                                                    ;&>&                                                                        ",
"                                                                                                                                ",
"                                                                                                                                "};
