/* XPM */
static char * wall_off_xpm[] = {
"64 64 482 2",
"  	c None",
". 	c #161C2E",
"+ 	c #313932",
"@ 	c #424C36",
"# 	c #81934A",
"$ 	c #B0C95D",
"% 	c #00002C",
"& 	c #80934A",
"* 	c #BAD462",
"= 	c #525E3A",
"- 	c #0D122D",
"; 	c #BDD763",
"> 	c #5C6A3D",
", 	c #748545",
"' 	c #BED863",
") 	c #94A952",
"! 	c #04092D",
"~ 	c #181E2E",
"{ 	c #A3BA58",
"] 	c #BCD663",
"^ 	c #00092D",
"/ 	c #424D36",
"( 	c #BCD763",
"_ 	c #3B8146",
": 	c #414B35",
"< 	c #4AA251",
"[ 	c #161E2E",
"} 	c #4C5738",
"| 	c #8EC65E",
"1 	c #171F2E",
"2 	c #02022C",
"3 	c #B7D060",
"4 	c #A2CD60",
"5 	c #2F5D3A",
"6 	c #245438",
"7 	c #B7D361",
"8 	c #BFD863",
"9 	c #51A352",
"0 	c #161B2E",
"a 	c #11002C",
"b 	c #7FBC5A",
"c 	c #5CA653",
"d 	c #17212F",
"e 	c #2D5939",
"f 	c #82C15C",
"g 	c #ABCF61",
"h 	c #A9CF60",
"i 	c #ADD161",
"j 	c #244635",
"k 	c #45914B",
"l 	c #AFD161",
"m 	c #80C05C",
"n 	c #78BD5B",
"o 	c #ACD061",
"p 	c #4D9C4F",
"q 	c #14122D",
"r 	c #1D3231",
"s 	c #63B859",
"t 	c #BED763",
"u 	c #86C25D",
"v 	c #B3D362",
"w 	c #5BB659",
"x 	c #9BC95F",
"y 	c #6AB659",
"z 	c #152432",
"A 	c #1A2A30",
"B 	c #A0CC60",
"C 	c #A8CE60",
"D 	c #96C75E",
"E 	c #59B659",
"F 	c #81C05C",
"G 	c #93C65E",
"H 	c #2A6947",
"I 	c #15172E",
"J 	c #529A4E",
"K 	c #B8D562",
"L 	c #5CB659",
"M 	c #A6CD60",
"N 	c #6DBA5A",
"O 	c #72BC5B",
"P 	c #58B659",
"Q 	c #8EC55D",
"R 	c #BAD663",
"S 	c #3D9A5E",
"T 	c #16192D",
"U 	c #1A2D30",
"V 	c #71B357",
"W 	c #9CCA5F",
"X 	c #68B95A",
"Y 	c #B5D462",
"Z 	c #5AB659",
"` 	c #77BD5B",
" .	c #44A662",
"..	c #287B5A",
"+.	c #2B5B3A",
"@.	c #B4D362",
"#.	c #57B559",
"$.	c #61B859",
"%.	c #6FBB5A",
"&.	c #55B559",
"*.	c #51AE5E",
"=.	c #5BB758",
"-.	c #2A8A64",
";.	c #172230",
">.	c #120A2D",
",.	c #54AA54",
"'.	c #6FBB5B",
").	c #88C35D",
"!.	c #B2D262",
"~.	c #5FB759",
"{.	c #46A563",
"].	c #59B559",
"^.	c #4AA961",
"/.	c #2A845F",
"(.	c #16172D",
"_.	c #234334",
":.	c #5AB559",
"<.	c #B9D562",
"[.	c #47A662",
"}.	c #3D9F66",
"|.	c #51AF5E",
"1.	c #2E9167",
"2.	c #182C33",
"3.	c #428647",
"4.	c #7CBF5C",
"5.	c #66B95A",
"6.	c #6CBA5A",
"7.	c #53B05D",
"8.	c #359A68",
"9.	c #58B55B",
"0.	c #29805D",
"a.	c #15112C",
"b.	c #58B358",
"c.	c #4FAC5F",
"d.	c #58B45A",
"e.	c #76BD5B",
"f.	c #5BB759",
"g.	c #32986A",
"h.	c #2C6444",
"i.	c #59B55A",
"j.	c #57B35B",
"k.	c #2F966A",
"l.	c #16212F",
"m.	c #1E5042",
"n.	c #339869",
"o.	c #9DCA5F",
"p.	c #55B15C",
"q.	c #309468",
"r.	c #3F7D43",
"s.	c #3C9F67",
"t.	c #3E9F66",
"u.	c #161A2E",
"v.	c #193436",
"w.	c #48A45F",
"x.	c #42A265",
"y.	c #40A165",
"z.	c #91C65E",
"A.	c #5EB759",
"B.	c #369967",
"C.	c #1C4B41",
"D.	c #267657",
"E.	c #44A464",
"F.	c #52AF5D",
"G.	c #2E966B",
"H.	c #267255",
"I.	c #16182D",
"J.	c #172430",
"K.	c #2D8F66",
"L.	c #3A9D67",
"M.	c #319568",
"N.	c #60B759",
"O.	c #56B35B",
"P.	c #2D9369",
"Q.	c #183034",
"R.	c #2D8D64",
"S.	c #349768",
"T.	c #2F956A",
"U.	c #150C2B",
"V.	c #287A59",
"W.	c #329869",
"X.	c #56B25C",
"Y.	c #54B15C",
"Z.	c #48A762",
"`.	c #287D5B",
" +	c #48904A",
".+	c #369A68",
"++	c #2A8362",
"@+	c #161B2F",
"#+	c #246B50",
"$+	c #2F986B",
"%+	c #2F976B",
"&+	c #287E5B",
"*+	c #182D33",
"=+	c #2A825E",
"-+	c #2F976A",
";+	c #379B68",
">+	c #2C8B64",
",+	c #1C3332",
"'+	c #56AE56",
")+	c #4BA961",
"!+	c #4EAC5F",
"~+	c #2E946B",
"{+	c #182E34",
"]+	c #1F5545",
"^+	c #2F9569",
"/+	c #277959",
"(+	c #246B51",
"_+	c #2C8C64",
":+	c #2E9368",
"<+	c #379A68",
"[+	c #3B9862",
"}+	c #172831",
"|+	c #286C66",
"1+	c #3B8969",
"2+	c #2E966A",
"3+	c #349969",
"4+	c #266E69",
"5+	c #19313B",
"6+	c #172530",
"7+	c #1B423B",
"8+	c #277757",
"9+	c #4CAB61",
"0+	c #2F9368",
"a+	c #193A38",
"b+	c #172937",
"c+	c #418F63",
"d+	c #5AB759",
"e+	c #56AF5C",
"f+	c #469965",
"g+	c #277C6E",
"h+	c #4DAA60",
"i+	c #2E956A",
"j+	c #2D956A",
"k+	c #49A762",
"l+	c #50AD5F",
"m+	c #27736F",
"n+	c #277270",
"o+	c #15132A",
"p+	c #16202F",
"q+	c #1D4E41",
"r+	c #1C4D41",
"s+	c #1C493F",
"t+	c #246767",
"u+	c #55AF5C",
"v+	c #327E6C",
"w+	c #4AA761",
"x+	c #4CAA60",
"y+	c #31976A",
"z+	c #3C9E66",
"A+	c #389B68",
"B+	c #2D8D6B",
"C+	c #27716F",
"D+	c #1E4F52",
"E+	c #21595B",
"F+	c #3F8F68",
"G+	c #3E8D68",
"H+	c #297B6E",
"I+	c #4BAA61",
"J+	c #4EAB60",
"K+	c #30966A",
"L+	c #297C6E",
"M+	c #205859",
"N+	c #1E4D50",
"O+	c #246F71",
"P+	c #47A563",
"Q+	c #256E6F",
"R+	c #28776E",
"S+	c #46A663",
"T+	c #319769",
"U+	c #2C8A6C",
"V+	c #246666",
"W+	c #161F30",
"X+	c #18303A",
"Y+	c #27706E",
"Z+	c #429366",
"`+	c #297D6E",
" @	c #2B866C",
".@	c #2E936B",
"+@	c #2A7D6E",
"@@	c #55B25C",
"#@	c #172634",
"$@	c #161A2D",
"%@	c #1D474C",
"&@	c #2B856C",
"*@	c #3B9D67",
"=@	c #2C876C",
"-@	c #256A69",
";@	c #172433",
">@	c #1A3B42",
",@	c #2B846D",
"'@	c #1A3840",
")@	c #266E6D",
"!@	c #28766E",
"~@	c #2E946A",
"{@	c #30976A",
"]@	c #28746F",
"^@	c #1B3D44",
"/@	c #1A3A42",
"(@	c #277170",
"_@	c #2A816D",
":@	c #359969",
"<@	c #28786E",
"[@	c #2E936A",
"}@	c #2E926B",
"|@	c #27736E",
"1@	c #15152B",
"2@	c #266D6B",
"3@	c #4DAB60",
"4@	c #29796E",
"5@	c #1C4248",
"6@	c #162030",
"7@	c #28756F",
"8@	c #52AF5E",
"9@	c #50AD5E",
"0@	c #4EAB5F",
"a@	c #36836B",
"b@	c #27706F",
"c@	c #2F946A",
"d@	c #49A862",
"e@	c #27716E",
"f@	c #1A3740",
"g@	c #172332",
"h@	c #21585A",
"i@	c #42A264",
"j@	c #317D6C",
"k@	c #359968",
"l@	c #2D8C6C",
"m@	c #1B4047",
"n@	c #266D6C",
"o@	c #215B5C",
"p@	c #15162B",
"q@	c #162131",
"r@	c #266C6B",
"s@	c #297A6E",
"t@	c #2D8E6B",
"u@	c #3D9E66",
"v@	c #4AA861",
"w@	c #409067",
"x@	c #359869",
"y@	c #287C60",
"z@	c #236363",
"A@	c #236262",
"B@	c #15142A",
"C@	c #182936",
"D@	c #1C4449",
"E@	c #276F6D",
"F@	c #2E916B",
"G@	c #29776E",
"H@	c #4FA660",
"I@	c #3C9E67",
"J@	c #4EA65A",
"K@	c #41A165",
"L@	c #2E796D",
"M@	c #2F7B6D",
"N@	c #1A3938",
"O@	c #21595A",
"P@	c #1B3E44",
"Q@	c #172734",
"R@	c #1F5355",
"S@	c #449666",
"T@	c #47A763",
"U@	c #458B47",
"V@	c #257456",
"W@	c #47A663",
"X@	c #54AD5D",
"Y@	c #2A756E",
"Z@	c #43A064",
"`@	c #5CB858",
" #	c #246E52",
".#	c #150D2A",
"+#	c #205759",
"@#	c #1F5254",
"##	c #172131",
"$#	c #193841",
"%#	c #57AF57",
"&#	c #3B7742",
"*#	c #1C4950",
"=#	c #32906A",
"-#	c #389C68",
";#	c #1F5645",
">#	c #161B2D",
",#	c #246665",
"'#	c #19333D",
")#	c #15192F",
"!#	c #3E7D44",
"~#	c #58B157",
"{#	c #1E3734",
"]#	c #1B3C42",
"^#	c #2B856D",
"/#	c #4FAD5F",
"(#	c #15102B",
"_#	c #16172C",
":#	c #458B49",
"<#	c #5BB75A",
"[#	c #4A964D",
"}#	c #33663C",
"|#	c #2D8F6B",
"1#	c #449566",
"2#	c #58B35A",
"3#	c #58B55A",
"4#	c #2C956B",
"5#	c #2A7F6E",
"6#	c #1D464B",
"7#	c #15192E",
"8#	c #4C9B4F",
"9#	c #59B358",
"0#	c #59B458",
"a#	c #2F5E3B",
"b#	c #1D484D",
"c#	c #2D8B6C",
"d#	c #3EA066",
"e#	c #34806C",
"f#	c #3FA065",
"g#	c #42A364",
"h#	c #2A806D",
"i#	c #266F6D",
"j#	c #172533",
"k#	c #1A363F",
"l#	c #2D906B",
"m#	c #27726F",
"n#	c #1C4147",
"o#	c #16192C",
"p#	c #256B6A",
"q#	c #2C8B6C",
"r#	c #246E70",
"s#	c #276F6E",
"t#	c #19323C",
"u#	c #1C454A",
"v#	c #48A662",
"w#	c #45A463",
"x#	c #31856C",
"y#	c #3A9C67",
"z#	c #1A373F",
"A#	c #2A7E6E",
"B#	c #287D6E",
"C#	c #409F65",
"D#	c #41A265",
"E#	c #2C886C",
"F#	c #2A8560",
"G#	c #236161",
"H#	c #29816D",
"I#	c #30986B",
"J#	c #182F34",
"K#	c #2E9267",
"L#	c #2A7E6D",
"M#	c #236060",
"N#	c #246766",
"O#	c #329769",
"P#	c #1A3D39",
"Q#	c #2D8E66",
"R#	c #2B836D",
"S#	c #1F5255",
"T#	c #16182C",
"U#	c #205557",
"V#	c #53AF5D",
"W#	c #2E906B",
"X#	c #23694F",
"Y#	c #14002A",
"Z#	c #256F59",
"`#	c #161D2E",
" $	c #1D484C",
".$	c #35896B",
"+$	c #1E5343",
"@$	c #1B4046",
"#$	c #1B3F45",
"$$	c #182D39",
"%$	c #246564",
"&$	c #256E70",
"*$	c #59B45A",
"=$	c #2D8E6A",
"-$	c #27726E",
";$	c #1F5053",
">$	c #19353E",
",$	c #256969",
"'$	c #2E9268",
")$	c #37846B",
"!$	c #2C896C",
"~$	c #2D9066",
"{$	c #205755",
"]$	c #246566",
"^$	c #2C866D",
"/$	c #1C4348",
"                                                                                                                                ",
"                                                                .                                                               ",
"                                                                .                                                               ",
"                                                                .                                                               ",
"                                                                .                                                               ",
"                                                              . .                                                               ",
"                                                              + @                                                               ",
"                                                              # $ %                                                             ",
"                                                            . & * =                                                             ",
"                                                            - ; ; >                                                             ",
"                                                            , ' ; ) !                                                           ",
"                                                          ~ { ; ; ] ^                                                           ",
"                                                          / ' ; ; ( _ .                                                         ",
"                                                          : ' ; ; ( < [                                                         ",
"                                                          } ' ; ; ; | 1                                                         ",
"                                                        2 3 ; ; ; ; 4 5                                                         ",
"                                                        6 7 ; ; ; ; 8 9 0                                                       ",
"                                                      a b ; ; ; ; ; ' c d                                                       ",
"                                                      e f ; g ; ; h ; i j .                                                     ",
"                                                    . k l ; m ' ; n 8 o p q                                                     ",
"                                                    r s t ( u t v w x ; y z .                                                   ",
"                                                    A B t x C t D E F ' G H .                                                   ",
"                                                  I J K o L C M N O P Q R S T                                                   ",
"                                                  U V 8 W X Y Z f ` Z Z M  ....                                                 ",
"                                                  +.@.D #.$.%.&.( ` *.Z #.=.-.;.                                                ",
"                                                >.,.'.E Z Z Z ).!.~.{.].Z Z ^./.(.                                              ",
"                                                _.:.Z Z Z Z E <.~.Z [.}.Z Z |.1.2.                                              ",
"                                              . 3.Z Z Z Z Z Z 4.5.6.7.8.9.Z Z ^.0.a.                                            ",
"                                              d b.Z Z Z c.d.Z #.v e.f.g.h.Z i.j.k.l.                                            ",
"                                              m.f.Z Z =.n.d.Z 6.o.E Z p.q.r.s.Z t.0.u.                                          ",
"                                            v.w.Z Z Z x.y.Z Z z.A.Z Z Z B.C.D.E.F.G.H.I.                                        ",
"                                          J.K.7.Z Z L.M.i.Z Z N.Z Z Z Z O.P.Q.R.S.k.T.m.                                        ",
"                                        U.V.W.X.Y.Z.`. +Z Z Z Z Z Z Z Z i..+++@+#+$+k.%+&+.                                     ",
"                                  0 T *+=+-+;+Z .+>+,+'+Z Z Z )+Z Z !+Z Z p.~+{+I.]+^+k./+.                                     ",
"                                  (+_+:+k.<+7.[+#+}+|+f.Z :.1+-+i.E 2+X.Z Z 3+4+5+0 2.2.6+.                                     ",
"                                  (.7+8+$+9+0+a+(.b+c+d+e+f+g+t.h+Z i+j+k+=.l+m+n+o+. .                                         ",
"                                  . 0 p+q+r+s+u.T t+u+Z v+m+w+x+y+Y.i+k.k.z+A+B+C+D+.                                           ",
"                                      . . . . 0 E+F+Z G+C+H+I+Z y+J+i+k.k.Z.*.K+L+M+.                                           ",
"                                            0 N+O+j.P+Q+R+k.i+=.S+i+k.k.k.i+Z.T+U+V+W+                                          ",
"                                          . X+Y+Z+;+`+ @.@+@k.Z @@k.k.k.k.k.k.k.k.n+#@                                          ",
"                                          $@%@C+-+k.k.k.&@+@k.i+].*@k.k.k.k.k.k.k.=@-@;@                                        ",
"                                        . >@C+,@k.k.k.-+R+T.k.2+Z.*@k.k.k.k.k.k.k.=@C+'@                                        ",
"                                        $@)@!@T.k.}.;+k.~@k.k.k.{@{@k.k.L+k.k.k.k.T.]@^@.                                       ",
"                                      . /@(@_@k.;+d.:@k.k.k.k.L.k.k.k.k.<@[@k.k.k.k.}@|@1@.                                     ",
"                                      ;@2@H+k.k.@@7.k.k.k.k.k.3@k.k.k.k.!@4@k.k.2+k.k.<@5@0 .                                   ",
"                                  . 6@-@7@T.K+8@Z 9@k.k.k.k.n.0@k.k.k.z+a@b@c@K+9@d@k.~@e@^@f@g@                                ",
"                                  >@h@_@-+j+S+Z p.i+k.k.k.k.*.f.i@k.*@z+].j@4@k@Z *.K+k.l@m@n@o@p@                              ",
"                              . q@r@s@~@t@*.Z Z :@)+k.k.u@n.9@Z @@k.v@7.Z w@b@x@Z f.y+k.k.y@5@n+z@A@A@B@                        ",
"                          0 C@D@E@b@F@G@H@Z ].I@)+J@k.i+Z 3+9@Z Z K@Z Z Z :.L@M@].w ;+{@v@k.N@O@C+Y+P@.                         ",
"                      . Q@R@A@n+C+C+(@S@f.Z d.T@U@V@k.t.Z W@l+Z Z w Z Z Z Z X@Y@Z@Z p.{@`@2+ #.#+#@#$@                          ",
"                        ##>@C+C+Y+C+$#%#Z Z ].&#*#k.k.h+Z Z d.Z Z Z Z Z Z Z f.=#B+Z i.-#J+x+T.;#$@>#                            ",
"                        . . . ,#'#)#!#Z Z ~#{#]#^#k.K+/#Z Z Z Z Z E E.Z Z Z Z O.i+i@Z i.j+7.{@}@(#                              ",
"                            . _#0 :#<#<#[#}#E+n+|#k.y+=.Z Z 3@Z Z Z z+1#2#Z Z 3#;+i+^.].4#[.W.5#6#                              ",
"                              7#8#9#0#a#r b#C+c#k.k.*.Z Z Z d#].Z Z Z.U+e#Z Z Z f#k.{@Y.g#k.k.h#i#j#                            ",
"                              . 0 0 0 $@k#(@R+k.k.W.j.Z Z l+2+i+].Z f.l#m#S@Z Z Z ;+k.k.k.k.k.k.(@n#                            ",
"                                  . o#M+p#H+q#k.i+l+Z f.E.{@k.k.[.Z Z [.!@r#=.Z Z @@{@k.k.k.k.k.h#s#t#                          ",
"                                  . u#C+m+T.k.k.v#Z d.w#q#~@k.k.K+F.Z F.}@C+x#y#Z f.3+k.:+k.k.k.T.!@n@6@                        ",
"                                . z#(@A#|#k.T+x.=.c.3+H+B#C#D#L.k.k.@@p.y+E#s@q#Z.c.)+k./+F#k.|#k.~@]@G#T                       ",
"                              . W+p#4@T.k.2+9@f.c.2+_@H#/#Z Z x+k.k.d@Z l+2+[@R+2+i+2+k.I#J#K#L#E#k.t@(@M#t#                    ",
"                            . 6@N#m+T.k.k.k.n.n.y+k.c@O#Z Z Z Z y+k.{@O.E x.k.c@k.k.k.k.k.=+P#Q#7@]@l@R#C+)@S#.                 ",
"                            T#U#C+t@k.-+k.k.k.k.-+k.x.V#Z Z Z p.{@k.k.j+v@!+i+k.k.W#k.k.k.-+X#Y#Z#C+C+C+n+n+V+0                 ",
"                        . `# $C+U+k.|#L+t@k.k.k.H+.$].Z Z Z Z )+k.k.k.k.k.}.Z.k.k..@L+}@k.k.T.+$_#P@t+n+@$#$$$.                 ",
"                        W+%$s#|#F@_@m#s@k.k.T.F@&$*$Z Z Z Z Z k.y+-#k.k.k.k.{@k.k.k.=$-$F@k.c@;$>#. ##g@. .                     ",
"                    T#>$+#m#C+b@b@C+,$'$k.-+,@b@)$Z Z Z Z Z c.2+A+=.i+k.k.k.k.!$k.k.~${$]$^$^#n+/$. . . .                       "};
